<?xml version="1.0" encoding="UTF-8"?>
<svg id="Layer_1" data-name="Layer 1" xmlns="http://www.w3.org/2000/svg" viewBox="0 0 1200 400">
  <defs>
    <style>
      .cls-1 {
        fill: #fff;
      }

      .cls-2 {
        font-family: Shupp, Shupp;
        font-size: 124.68px;
      }
    </style>
  </defs>
  <text class="cls-2" transform="translate(274.9 235.58) scale(.9 1)"><tspan x="0" y="0">ThoughtfulApp Co.</tspan></text>
  <g>
    <path d="M156.48,144.49c-1.66-2.39-1.85-6.01-2.23-8.52-.27-1.4-.47-2.69-.49-4.21.03-3.25.65-6.54-.18-9.74-.25-1.64-.6-2.56-2.34-2.81-15.42-1.68-30.71,0-46.16.42-1.42-.08-2.81-.37-4.23-.29-1.89.06-2.8,1.39-2.68,3.27-.03,3.17.65,6.18,1.17,9.31.28,3.27.69,6.75.32,9.99-.25,3.71.83,7.64.54,11.32-.34,3.64.17,7.38-.1,11-.16,2.4-.45,4.82-.11,7.3.18,1.12-.1,2.42.02,3.42.78,1.58,2.88,1.29,4.54,1.45,1.58.05,4.37.1,5.98.15,8.15.44,17.52.01,25.58.04,7.34.36,13.82.11,21.14.3,3,.02,8.24-2.21,6.59,3.09-.49,1.5-1.97,2.41-3.22,3.32-2.37,1.64-4.93,3.71-7.13,5.49-4.59,3.35-9.11,6.31-13.56,9.83-3.31,2.47-6.4,4.34-9.26,7.17-3.45,2.75-6.38,6.33-9.43,9.6-1.14,1.16-2,1.58-3.12,2.62-1.49,1.41-2.89,3-4.45,4.31-3.85,3.63-8.23,6.62-12.2,10.13-4.78,3.69-3.73-3.9-4.06-6.59-.33-3.82-.76-7.38-.93-11.24-.09-8.48.42-17.03,1.07-25.46.23-2.64-.3-5.3-.61-7.93-.16-1.18.1-2.31-.97-2.66-5.06-.5-10.57-.63-15.77-.33-7.29.33-18.91-.28-26.94.87-3.85.68-7.86-.13-11.77.41-3.5.38-6.89-1.31-3.21-4.67,1.28-1.27,3.38-1.87,4.74-3.17,7-8,14.11-15.88,21.01-23.97,3.89-4.81,8.86-8.67,13.44-12.92,3.2-3.42,6.58-6.79,9.84-10.07,1.28-1.1,2.61-2.05,3.66-3.19,1.18-1.24,2.41-2.87,2.95-4.58.36-1.07.84-2.17,1.52-3.05,7.1-7.55,14.55-14.97,21.18-22.91,7.25-7.24,14.67-14.43,21.87-21.71,3.36-3.39,5.9-7.04,9.28-10.37,2.28-1.84,3.72-5.19,6.46-6.3,3.67-.5,2.39,4.55,2.52,6.79-.29,8.18-.29,16.6-1.84,24.69M154,145.32,154.67,88.51c.02,6.67,1.18,13.73,1.87,20.33.42,1.91.1,3.89.32,5.82.27,1.37,1.61,1.83,2.92,1.94,7.37-.38,14.39,1.05,21.76,1.2,5.12-.08,10.74-.14,15.96-.31,3.29-.31,6.25-.93,9.57-1.41,1.76-.24,4.72-1.06,5.21,1.27.5,3.63.16,6.93,0,10.69-.17,2.44.46,4.65.45,7.06-.01,2.39-.03,4.53-.3,6.91-1.19,8.79-1.79,17.61-1.09,26.53.26,3.71,2.98,7.52-3.07,6.66-3.03-.2-5.48-.49-8.26-.32-3.7.13-7.6,1.09-11.38.85-2.64-.16-6.28.28-9.18.1-3.29-.25-7.08-.29-10.26-.23-4.63-.58-9.57-.75-14.1-.79-1.62-.55-.22-2.87.39-3.86,1.18-1.76,1.47-3.05,1.3-4.93-.04-1.85.05-3.76.08-5.64.14-2.55.64-4.96.35-7.5-.39-3.18-1.07-5.63-.92-8.7M125.74,87.23c-2.04,2.18-4.62,4.27-6.6,6.39-2.58,3-5.3,6.24-7.97,9.18-3.62,3.8-7.18,7.36-10.62,11.47-1.61,1.97,2.78,1.58,3.83,1.78,7.09-.01,13.85-.09,20.93-1.1,5.45.05,11.25-.22,16.74.1,2.95.05,5.81.29,8.76.57.85.02,1.59-.18,2.04-.7.77-.83.61-2.56.56-3.87-.24-3.07-.56-6.5-.94-9.67-.9-7.34-.78-14.63.08-21.89.85-4.83.97-9.8,1-14.68-.18-1.2.93-6.78-1.41-4.93-3.72,3.29-6.62,7.08-9.98,10.76-1.7,1.96-3.63,3.88-5.59,5.63-3.52,3.63-6.93,7.38-10.72,10.85l-.13.13ZM182.08,147.73c.81-.21,3.03-2.97,3.8-3.66,2.19-2.24,4.73-6.08,6.38-8.33,1.64-2.14,2.93-4.38,4.63-6.33,3.03-3.04,5.47-5.72,8.39-8.68.88-1.1-.04-1.38-1.23-1.27-5.33,1.29-10.11,1.28-15.61,1.37-5.45-.08-11.08.41-16.49-.32-4.27-.88-8.72-.82-13.07-.74-1.47-.02-2.29.89-2.17,2.3.53,4.71.02,9.89.56,14.53.32,3.81,1.5,7.49,2.22,11.17,1.22,5.71.12,11.56.27,17.41.02,1.81.89,1.35,1.66.48.91-1.05,1.96-2.02,3.04-2.9,2.26-1.62,4.69-3.1,6.64-5.13,3.43-2.65,7.03-5.88,10.25-8.85M176.15,173.11c2.85.1,5.73-.13,8.56-.27,2.02.04,4.17.39,6.12.22,1.59-.02,3.21-.46,4.8-.32,1.22.16,1.82.27,2.78-.08,2.18-1.14,4.58-1.35,6.98-.98,1.85.11,2.14-1.85,1.92-3.34-.23-1.95-.21-4.18-.16-6.06-.61-11.73,2.69-22.87,1.15-34.45-.1-1.22.03-2.46,0-3.62-.04-.63-.17-1.02-.48-1.1-.43-.13-1.34.61-1.79,1.04-3.03,2.62-5.86,5.97-8.31,8.93-1.04,1.47-2.62,2.24-3.68,3.59-.7.97-.81,2.18-1.59,3.18-1.13,1.29-2.31,3.06-3.4,4.5-1.15,1.27-2.33,1.99-3.56,3.35-.52.53-1.08,1.12-1.48,1.61-1,1.29-1.21,2.25-2.52,3.24-4.39,3.63-8.18,7.77-12.89,11.07-1.59,1.08-2.25,2.88-3.52,4.24-1.08,1.09-2.22,2.46-1.77,3.38.85,1.27,3.4,1.11,4.91,1.38,2.56.23,5.2.75,7.78.5h.18ZM73.71,174c5.46-.12,11-.63,16.52-.24,2.25-.06,6.3,1.58,6.43-1.84-.03-4.09-.41-8.05.08-12.13.14-3.49.31-6.98.59-10.45.03-1.36-.39-2.57-.77-3.85-.71-2.1-.69-4.52-.78-6.65-.24-2-.75-4.11-.75-6.09-.34-1.74.37-7.38-1.79-7.5-.92-.02-1.98,1.02-2.83,1.76-3.55,3.17-6.93,6.6-10.34,10.05-1.32,1.21-2.44,2.62-3.5,3.72-1.89,1.85-4.59,3.65-6.57,5.82-2.63,2.56-5.11,6.27-7.82,8.95-4.27,5.08-9.12,9.89-12.95,15.36-3,3.35-3.34,4.27,1.72,3.92,6.35-.13,11.42-.8,17.65-.76M110.87,219.16c4.31-3.55,7.64-7.72,11.64-11.63,1.02-1.09,2.1-1.94,2.97-3.07.71-.99.93-1.9,1.72-2.41.64-.48,1.76-.78,2.64-1.4,2.05-1.67,4.2-3.2,6.32-4.89,2.84-1.98,5.41-4.22,8.14-6.37,3.84-2.7,7.88-5.15,11.57-7.94,1.05-.84.93-1.34-.21-1.45-4.45-.48-6.29-.36-10.87-.39-2.51.06-4.99-.1-7.38-.3-2.45.03-5.11.24-7.71.3-2.88.28-6.22.24-9.26,0-3.15.05-6.19.18-8.96-.13-1.26-.1-2.68-.07-4.05-.06-3.43.02-6.19-.45-5.92,3.93-.07,2.84-.34,5.14-.18,8,.15,3.01-.35,5.62-.5,8.65-.1,2.72.07,5.36-.25,8.03-.47,3.69-.38,7.48,0,11.3.33,2.18-.05,4.71.46,6.88.59,1.18,2.03-.55,2.64-.98,2.36-2.11,4.75-3.78,7.06-5.96l.13-.12Z"/>
    <path d="M190.08,319.76c-9.13.14-18.34,1.45-27.55.81-3.09-.17-6.57.49-9.46-.82-2.03-1.06-3.05-3.15-4.58-4.84-5.29-5.23-9.87-11.26-15.04-16.63-5.2-4.96-9.65-10.65-14.5-15.9-6.54-6.72-13.33-13.21-19.99-19.7-5.7-5.62,3.11-5.69,6.98-5.45,4.2.09,8.26-.25,12.43-.1,2.48.03,5.03.26,7.48-.08,4.88-.62,6.92-5.77,10.14-8.84,4.13-4.41,8.78-8.73,13.08-12.99,2.43-2.48,8.56-9.43,10.21-2.78.64,30.56-7.88,22.72,24.65,24.26,6.95-.01,13.89-.08,20.81.57,4.98.19,8.98.93,8.93,6.9.62,5.95,1.16,12.09,1.54,18.12.68,6.45,1.7,12.77,1.35,19.18-.11,3.13-.49,6.27-.42,9.4.36,5.18.71,8.1-5.56,7.62-3.16-.14-6.31.57-9.48.85-3.62.27-7.28.15-10.84.42h-.19ZM141.31,257.32c4.23-.24,9.35.7,13.15-1.64,1.43-1.17,1.52-3.53,1.73-5.63.38-3.56.46-7.16.71-10.69.28-3.86-1.07-5.11-4-2.08-5.51,5.09-11.18,10.11-16.4,15.51-5.41,5.72-.09,4.52,4.62,4.53h.19ZM165.47,300.37c3.4-3.7,7.29-7.12,10.59-10.98,4.87-5.54,10.52-10.55,15.78-15.66,4.17-3.8,9.16-6.69,13.39-10.43.69-.56,1.65-1.7,1.03-2.26-.93-.89-3.1-.87-4.46-.97-5.84-.39-11.84-.42-17.82-.38-7.16-.34-14.55-.24-21.71-.19-3.46-.15-5.4,1.35-5.48,4.92-.41,6.04-.5,11.83-.61,17.9,0,6.46.52,12.94.39,19.39,0,1.9-.52,4.37-.03,6.21.61,1.41,2.03-.52,2.64-1.09,1.97-2.21,4.19-4.21,6.17-6.32l.13-.14ZM132.7,292.45c2.27,2.31,4.63,4.74,6.83,7.15,4.07,4.32,7.6,9.38,12.27,13.01,2.47,1.36,1.95-3.12,2.23-4.58.2-2.68.41-5.41.5-8.1.12-4.75-.42-9.62-.31-14.45.28-5.66-.18-11.31.26-16.98.04-2.88,1.6-8.36-2.71-8.5-7.96.17-16.03-.05-23.95.69-6.06-.31-12.71-.44-18.69-.01-1.39.17-3.61-.06-4.56.84-.23.32-.11.78.3,1.36,1.46,1.8,3.25,3.48,4.87,5.19,4.44,4.42,9.64,9.34,13.97,14.1,3.1,3.21,5.76,6.97,8.87,10.14l.13.13ZM185.77,316.1c8.21-.1,16.35.14,24.27-1.83,2.04-.76,2.44-2.91,2.52-4.89.22-4.76.62-9.59.28-14.37-.07-2.67-.62-5.32-.99-7.91-.21-2.92-.32-5.99-.73-8.94-.34-3.54-.36-6.75-.89-10.11-.38-2.79-1.71-3.96-4.12-2.01-3.17,2.6-6.68,4.75-9.94,7.21-2.26,1.95-4.36,4.22-6.65,6.18-4.45,3.99-7.89,8.57-11.82,12.96-3.57,3.85-7.74,7.14-11.57,10.75-3.15,2.84-5.36,6.57-7.62,10.03-.72,1.05-1.59,2.71.1,3.32,7.36,1.51,15.42,1.23,22.77-.22"/>
    <path d="M105.73,255.84c-7.28-2.4-6.87-10.29-2.51-15.35,5.73-7.04,12.28-13.4,18.87-19.61,8.36-7.96,16.18-16.41,25.36-23.44,4.58-3.99,9.82-12.85,16.79-8.26,8.35,5.83,2.57,15.11-2.52,21.15-2.9,3.65-6.18,7.15-9.39,10.6-4.17,4.6-8.76,8.09-13.07,12.08-4.74,4.57-9.23,9.49-13.95,14.08-5.02,4.89-11.93,10.9-19.41,8.8l-.17-.05ZM109.42,252.62c8.81-.64,20.91-16.5,27.56-22.62,5.91-5.22,11.94-10.55,17.13-16.68,3.41-4.31,15.23-15.59,9.13-20.71-3.01-1.7-6.43,1.7-8.63,3.69-2.21,2.03-4.56,3.79-6.93,5.56-6.23,4.45-11.32,10.12-16.79,15.43-3.34,3.2-6.9,6.4-10.15,9.73-5.21,5.42-10.8,10.7-15.15,16.99-2.6,3.84-1.53,8.62,3.67,8.62h.16Z"/>
    <path d="M133.49,174.9c-17.74,4.51-33.3-11.87-31.1-29.38,2.92-25.72,36.63-34.15,48.62-10.01,7.41,14.85-.93,35.33-17.35,39.34l-.17.04ZM130.45,171.65c12.14-1.41,20.94-14.62,19.17-26.58-4.05-26.89-39.51-25.59-43.34.7-2.03,13.84,9.7,27.89,23.99,25.9l.18-.02Z"/>
    <path class="cls-1" d="M127.64,85.73l2.47-2.45,1.8-1.89,1.38-1.4,3.23-3.5c.46-.5,1.41-.96,1.91-1.51l1.41-1.55c.93-1.03,1.82-1.85,2.68-2.92.7-.87,1.52-1.72,2.26-2.56l3.24-3.66c1.63-1.84,3.29-3.37,5.16-4.99l.02,1.85c.01,1.04-.05,1.99-.07,3.05l-.15,8.25-.15,2.34c-.1,1.47-.89,5.63-.9,6.55-.01,1.45.06,2.34-.31,3.69-.51,1.88.06,4.13-.18,6.1-.07.57-.12,1.12-.08,1.65l.27,3.68c.06.8.21,1.75.19,2.47-.02.82-.16,1.27.24,1.99l.16,1.75.23,2.35.47,4.85c.18,1.84.24,3.74-.02,5.48-2.24.57-4.05-.23-6.11-.3l-4.27-.15-1.75-.07-3.67-.15c-.72-.03-1.37-.02-2.09,0l-4.77.15c-1.38.04-2.78-.12-4.24-.17-.26,0-7.31.91-7.16.91l-6.16.21c-1.12.04-2.15.01-3.28,0-2.08-.03-4.18.31-6.26.02l-3.36-.47,3.67-4.06,2.26-2.57c1.73-1.98,4-3.92,5.15-5.24,1.38-1.57,2.63-3.11,4.13-4.59.61-.61,1.12-1.43,1.66-2.06l2.56-3.01c1.5-1.76,4.82-4.14,6.57-6.4l1.9-1.65Z"/>
    <path class="cls-1" d="M68.61,174.06l-7.11.14-4.11.38-2.96.13-6.55.2c-.35.01-.88,0-1.09-.21-.21-.21.02-.93.27-1.11,2.53-1.87,3.11-3.68,4.94-5.88l2.42-2.91,2.41-2.67c.5-.55,1.07-1.37,1.58-1.82,1.27-1.11,2.06-2.1,3.05-3.54.34-.49,3.02-2.71,5.12-5.86.51-.77,1.21-1.41,1.81-2.1,1.64-1.87,4.41-4.61,6.55-6,1.96-1.28,2.85-3.31,5.18-5.33.79-.69,1.61-1.14,2.16-2.01.79-1.27,1.99-2.16,3.08-3.17l5.6-5.23c.69-.65,1.64-1.06,2.55-1.77.74,1.21.98,2.58.89,4.01-.07,1.12.22,2.23.24,3.29l.09,3.34.76,3.35c.05.21-.27,3.34.08,4.67l.59,2.22c.68,2.52,1.19,1.93.65,5.25-.14.86-.19,1.46-.22,2.32l-.1,2.49-.09,3.06c-.1,3.18-.4,1.99-.34,4.63l.07,3.42.06,3.02c0,.38.76,3.96-.55,3.88l-2.7-.17c-2.87-.48-8.94-.55-11.74-.35l-2.55.18-2.94.03c-.66,0-1.36-.04-2.01.09l-5.11.06Z"/>
    <path class="cls-1" d="M110.9,218.53c-.69.44-1.12,1.31-1.6,1.84-.75.83-2.45.91-3.01,2-.9,1.75-2.69,1.35-4.65,4.48-.76-.88-.52-2.12-.53-3.17v-2.2c-.03-2.16-.37-3.21-.47-5.72-.09-2.15-.18-4.25.07-6.41l.38-3.3c.05-.45.01-1.26.01-1.78v-3.24c-.02-4.65.67-3.95.56-8.6l-.12-5.02.36-2.73c.16-1.19-.54-2.67-.02-3.77.81-1.74,3.69-.85,6.08-1.03,4.66-.34,4.38.41,7.11.24.94-.06,1.84.02,2.81.03,1.15.01,2.49-.38,3.68-.13,2.96.62,5.65.07,8.54-.02l4.84-.14,2.84-.32c.36.17,1.03.47,1.52.48l8.78.04c.82,0,1.61.41,2.41-.3l1.5.48,4.92.22c-.23.43-.55.56-.92.62-.64,1.37-1.94,1.88-3.22,2.37-.53.56-1.43,1.35-2.25,1.83l-1.01.6c-.74.43-1.35.87-2.03,1.41-.37.29-1.21.54-1.59.95-.55.58-1.41.85-1.96,1.3l-2.17,1.76c-1.41,1.15-2.61,2.54-4.29,3.32-1.35.63-2.26,2.03-3.42,2.75-.84.52-1.54.87-2.23,1.45-.96.81-1.53,1.61-2.58,2.4-.71.53-.33.14-1.96,1.12l-.46.35c-.12.22-.23.21-.37.54s-.58.78-.94,1.12l-2.47,2.34-2.5,2.57-1.04,1.06-3.32,3.37-1.07,1.21c-1.28,1.45-2.55,2.62-4.2,3.66Z"/>
    <path class="cls-1" d="M183.83,146.26c.38-.07,1.52-1.63,1.66-1.94.37-.8,1.07-1.25,1.55-1.9l4.21-5.68,1.32-1.98,1.86-2.34c.28-.35.62-1.25.82-1.66l3.63-3.67c1.04-1.05,2.21-2.04,3.11-3.19.46-.59.79-1.16,1.35-1.61l2.62-2.09c-.94-.67-2.05-.6-3.11-.32l-2.18.57c-1.2.31-2.41.54-3.64.77l-1.18-.44c-.91.51-1.85.32-2.82.34l-3.2.08-3.89.11-3.49-.04h-5.77s-1.87.06-1.87.06c-1.47.05-2.98-.58-4.45-.72-1.78-.17-3.65-.5-5.43-.49-2.69.01-5.13.29-7.84-.1-.07,1.5-.14,2.9.19,4.21.57,2.26-.15,4.56.02,6.92l.27,3.83c.11,1.57,0,4.01.9,5.8,0,.34-.01,1.07.07,1.38l.78,2.94c.4,1.5.72,2.88.83,4.48.07,1.11.5,2.33.35,3.39-.27,1.84-.03,1.98-.12,3.44l-.25,3.68c-.09,1.41-.04,2.81.02,4.36.03.8-.69,1.66.26,2.23l1.15-1.6c.22-.31.71-.73.96-1.02.71-.83,1.36-1.58,2.49-1.93l.45-.8,2.29-1.21c1.07-.56,1.59-1.16,2.43-2.12,1.69-1.94,6.25-4.13,7.55-6.82l1.77-.8,1.31-1.52c.58-.68,1.32-1.28,2.05-1.82l.96-.77Z"/>
    <path class="cls-1" d="M175.8,173.32c-2.91.04-5.66-.27-8.53-.63-1.25-.15-3.38-.39-3.87-1.59-.44-1.02.95-2.6,2-4,1.19-1.56,2.47-3.02,4.04-4.22,4.32-3.44,8.74-7.49,12.59-11.13,2.41-3.44,5.65-5.97,8.28-9.28,2.31-2.74,3.25-5.81,6-8.2,3.25-3.21,6.35-7.55,9.66-10.22.79-.63,1.45-.95,1.84-.79,1.03.9.49,3.16.71,4.63,1.32,11.71-1.81,23.23-1.23,34.98-.36,2.4,1.21,7.18-1.2,8.5-1.41.65-3.6.14-5.32.66-.73.21-1.45.49-2.17.66-4.5.59-9.47.5-14.12.38-2.88.06-5.64.25-8.48.24h-.19Z"/>
    <path class="cls-1" d="M211.04,288.19c1.2.46.6,2.11.64,3.06.15,3.45.95,6.8.42,10.23-.28,1.82.15,3.59-.12,5.45l-.39,2.7c-.12.82,1.17,4.45-1.21,4.71l-5.29.57-5.56.72c-1.87.24-3.65.25-5.57.22l-4.17-.05-3.89.15c-.96.04-2.46.23-3.4.24-1.96.03-1.04.59-3.14.69-.98.05-.86-.15-1.79-.02l-4.35.38c-.07,0-.95-.22-3.41.13-.95.13-2.23-.18-3.29-.23-1.97-.09-3.81-.26-5.76-.49-1.34-.16-2.45.05-3.95-.68l2.93-3.44c1.32-1.55.97-3.14,2.99-4.81.62-.51.7-.78,1.07-1.56.34-.73,1.34-1.48,1.9-2.16.8-.96,1.75-1.48,2.73-2.2.55-.4,1.22-1.12,1.76-1.63l1.2-1.14c.65-.62,1.4-1.23,2-1.86.72-.75,1.26-1.16,2.18-1.74.59-.37,1.22-1.51,1.91-2.06.55-.43.95-1.08,1.42-1.59,1.07-1.18,1.31-1.41,2.04-2.84.45-.76.21-.83,1.31-1.16l.2-.2q1.07-1.32,1.87-2.4c.42-.58,1.09-.84,1.58-1.39l1.16-1.3,2.96-2.92c.33-.33,1.19-.71,1.62-1.07.79-.65,1.32-1.53,1.98-2.19.86-.86,1.67-1.43,2.34-2.59l3.25-1.39c.11-.82.66-1.15,1.23-1.16.37,0,.78-.63,1.04-.82l2.23-1.64c1.02-.75,2.34-.96,2.67-2.31.17-.7,1.57-1.16,2.31-1.47.68,1.33.79,2.62.67,4.05-.16,2.03.95,1.52.64,4.59-.22,2.18.39,4.44.56,7.53.18,3.45.71,2.55.77,4.29"/>
    <path class="cls-1" d="M132.86,292.05c-1.37-1.43-2.88-2.66-3.86-4.32-1.19-2-2.86-3.36-4.37-5.06-2.51-2.83-4.98-5.44-7.68-8.07l-7.11-6.93-3.61-3.98c-.73-.8-1.76-1.07-2.43-2.15,2.35-.53,4.81.79,6.38-.15.63-.37,1.04-.22,1.72-.22l9.91.03c.73,0,1.79-.31,2.43-.36.53.44.78.43,1.51.45.41.02,1.18.31,1.62.45l5.91-.87c.73-.11,3.6.24,6.24.06l1.87-.13c1.38-.09,2.71-.02,4.07.01l1.93.05,2.4.02c2.71.02,3.08-1.22,4.34-.44-.69,3.73.46,2.34-.22,6.57-.54,3.35-.43,6.52-.35,9.86l.04,1.73c.02.96.12,2,.02,2.95-.18,1.55-.15,2.94-.11,4.49.05,2.12-.32,3.74.03,5.73.15.83.2,1.78.24,2.68l.12,2.55c.07,1.49-.15,2.93-.23,4.44l-.14,2.56-.67,9.14c-1.02-.41-1.62-1.02-2.24-1.82-.73-.94-1.63-1.72-2.46-2.58l-2.39-2.47c-1.74-1.8-3.02-3.69-4.87-5.72l-2.87-3.14-5.15-5.36Z"/>
    <path class="cls-1" d="M165.78,299.69c-2.36,2.52-2.82,2.33-5.17,4.99l-1.62,1.84c-1.67,1.9-.48.57-1.78,2.49-.1.14-.64-.39-.64-.58.19-4.95.8-4.68.64-10.46l-.07-2.42c-.01-.39.07-1.1.1-1.51-.37-1.03-.41-1.83-.31-2.9.08-.82-.05-1.78-.13-2.68-.09-1.14.07-2.37.1-3.6.05-2.86-.46-3.15-.11-5.61.42-2.97-.15-2.68.18-6.25l.17-1.86c.06-.62-.09-1.27-.12-1.91-.09-1.52.42-3.16.43-4.68v-1.5c.02-.98.24-2.1.59-2.99,3.27.46,3.95-.04,7.35.05l3.01.07c1.46.04,2.79-.24,4.24-.12l3.58.3,3.25-.3c3.41-.32,1.71.9,7.32.34,1.71-.17,3.37-.12,5.05-.09l2.87.05c.96.02,1.67-.02,2.64.22.78.19,1.75.13,2.62.24.64.08,1.04-.04,1.74-.21.91-.22,2.18.38,3.13.51.77.1,1.4.01,2.02.57l-7.6,6.01c-1.86,1.47-3.65,2.79-5.79,3.94l-2.06,1.97-2.56,2.56c-1.43,1.43-2.95,2.69-4.43,4.1l-2.46,2.35c-1.48,1.42-2.84,2.84-4.2,4.36l-3.19,3.53-1.97,2.18-2.92,2.86c-.98.96-1.78,1.82-2.95,2.63-.38.26-.65,1.17-.96,1.5Z"/>
    <path class="cls-1" d="M141.25,256.78l-5.61.18c-.71.02-1.38.21-2.07-.16,1.52-1.51,2.73-2.96,3.97-4.7s2.08-1.39,3.87-3.71c.63-.82,1.19-1.16,2.04-1.75.94-.64,1.66-1.89,2.5-2.71,1.26-1.24,2.54-2.22,3.89-3.32.7-.57,1.42-1.4,2.08-2.03l2.96-2.79c.22-.21.46-.57.68-.61.68-.13.77,1.52.74,2.06-.07,1.28-.06,2.42-.02,3.71.02.76-.59,1.94-.46,2.72.52,3.11-.15,1.85-.19,5.61-.01,1.02-.22,2.09-.35,3.16-.12.99-.08,2.29-.56,3.23l-3.75.86c-1.08.25-2.41.07-3.57.19-3.56.37-3.07-.03-6.16.07Z"/>
    <path class="cls-1" d="M110.79,252c-3.22,1.07-5.82-1.33-6.41-3.57-.49-1.85.02-3.14,1.24-4.54l3.33-3.8,2.99-3.45,1.4-1.6,1.95-2.23c.28-.32,1.06-.77,1.41-1.04,1.3-2.35,1.69-1.49,3.52-3.66,1.04-1.24,2.01-2.41,3.21-3.5l2.42-2.2,3.86-3.52,2.45-2.2c2.23-2,2.43-2.9,4.71-5l2-1.84,4.4-4.18c1.61-1.53,4.95-3.64,6.96-4.8.58-.33,1.25-.59,1.61-1.08.94-1.31,2.05-2.25,3.26-3.29s4.26-5.52,6.05-4.56c.5.27,1.15.62,1.63.92,1.24.78,1.48,2.63,1.93,3.8.49,1.27.21,1.82-.39,2.8-.73,1.18-1.49,2.22-2.29,3.36l-3.88,5.53-1.1,1.37c-.37.46-1.93,1.88-2.42,2.22-1.35,1.84-2.69,3.55-4.27,5.17l-1.84,1.89-2.5,2.61-1.35,1.4c-2.25,2.32-4.03,2.64-5.58,4.81-2.79,1.38-3.94,3.59-6.14,5.82-3.59,3.63-3.1,4.05-7.39,7.62-1.22,1.02-2.25,1.97-3.26,3.22-.41.5-1.07.82-1.54,1.25l-2.04,1.86-2.9,2.33c-3.21.64-1.76,1.02-5.02,2.1ZM155.81,203.38c.36-.38.67-.96.55-1.24-.1-.23-.51-.54-.88-.69-.47-.2-1.11.22-1.32.68-.19.42-.09.89.26,1.19.43.38.95.52,1.39.06ZM127.62,232.4c.82-.51,1.15-.87,1.1-1.47-.03-.35-.48-.9-.86-1-1-.26-1.94,1.22-1.6,1.46l1.37,1.01Z"/>
    <path class="cls-1" d="M130.78,171.89c-1.96.32-7.3,0-9.03-.58-2.01-.66-6.2-2.96-7.52-4.43s-2.54-3.01-3.72-4.64c-.91-1.26-1.52-2.68-2.24-3.99l-.9-1.65c-.96-1.76-1.16-3.6-1.41-5.59-.07-.53-.21-1.09-.16-1.64.09-.97-.04-2.08.17-2.93l.68-2.79c.35-1.43,1.01-2.81,1.6-4.16l.83-1.94,2.12-3.3c.86-1.33.48-1.93,3.53-4.01.82-.56,1.7-.89,2.68-1.25,2.82-1.04,5.26-1.99,8.3-2.46l5.8-.9c.95-.15,2.29.2,3.23.41,1.64.36,3.53,1.37,4.82,2.3l1.63,1.18,1.99,1.46c3.03,2.22,4.12,3.76,4.78,7.41,1.32,2.72,1.75,6.49,1.45,9.41-.11,1.07.15,2.31-.02,3.37-.12.76-.74,1.61-.76,2.38-.07,2.22-.31,1.83-1.62,4.49l-1.6,3.26c-1.02,2.08-4.06,4.86-5.55,6.79-1.14,1.48-2.42,2.1-4.14,2.67-.9.3-1.72.94-2.86.84-.62-.05-1.31.2-2.06.33ZM127.02,144.13c-.86.23-1.11.88-.86,1.46s.73.9,1.42.68c.4-.13.87-.76.72-1.23-.17-.52-.79-1.04-1.28-.92Z"/>
  </g>
</svg>