<?xml version="1.0" encoding="UTF-8"?>
<svg id="Layer_1" data-name="Layer 1" xmlns="http://www.w3.org/2000/svg" viewBox="0 0 512 512">
  <defs>
    <style>
      .cls-1 {
        fill: #fff;
      }
    </style>
  </defs>
  <path class="cls-1" d="M281.08,186.92c-2.49-3.58-2.78-9.02-3.34-12.78-.4-2.1-.71-4.04-.73-6.32.04-4.88.97-9.8-.27-14.61-.38-2.47-.9-3.84-3.51-4.22-23.13-2.51-46.07-.01-69.24.63-2.13-.12-4.21-.55-6.35-.43-2.84.09-4.2,2.08-4.02,4.91-.05,4.75.98,9.26,1.75,13.97.42,4.9,1.04,10.12.49,14.99-.38,5.57,1.25,11.46.8,16.97-.52,5.46.25,11.06-.16,16.51-.24,3.6-.68,7.23-.16,10.95.27,1.68-.15,3.62.03,5.14,1.17,2.37,4.32,1.93,6.82,2.17,2.37.07,6.55.16,8.98.22,12.23.66,26.28.02,38.37.06,11.01.54,20.73.16,31.72.45,4.5.03,12.36-3.32,9.89,4.64-.74,2.25-2.95,3.62-4.83,4.98-3.55,2.46-7.39,5.56-10.7,8.23-6.89,5.02-13.67,9.47-20.35,14.75-4.97,3.71-9.59,6.52-13.89,10.75-5.18,4.13-9.56,9.49-14.14,14.39-1.71,1.74-3,2.37-4.68,3.93-2.23,2.11-4.34,4.5-6.68,6.46-5.78,5.44-12.34,9.93-18.3,15.19-7.16,5.53-5.59-5.85-6.09-9.89-.49-5.72-1.14-11.08-1.4-16.87-.14-12.73.64-25.55,1.61-38.19.35-3.95-.45-7.95-.91-11.89-.24-1.77.14-3.46-1.45-3.99-7.59-.76-15.85-.95-23.66-.5-10.93.5-28.36-.42-40.41,1.3-5.77,1.03-11.78-.2-17.65.62-5.24.56-10.33-1.97-4.82-7,1.92-1.91,5.07-2.81,7.1-4.76,10.5-12,21.17-23.83,31.51-35.96,5.84-7.21,13.29-13.01,20.17-19.38,4.81-5.13,9.87-10.19,14.76-15.1,1.92-1.65,3.91-3.07,5.48-4.78,1.78-1.86,3.61-4.31,4.43-6.87.54-1.6,1.25-3.25,2.28-4.58,10.65-11.33,21.83-22.46,31.78-34.37,10.87-10.87,22-21.64,32.81-32.56,5.04-5.08,8.84-10.55,13.92-15.56,3.42-2.77,5.59-7.78,9.68-9.44,5.5-.75,3.59,6.83,3.78,10.18-.43,12.27-.44,24.9-2.75,37.03l-.37,6.69c.03,10,1.77,20.59,2.8,30.49.64,2.86.16,5.83.48,8.73.41,2.05,2.41,2.75,4.38,2.91,11.06-.57,21.58,1.57,32.64,1.81,7.67-.11,16.11-.21,23.94-.46,4.94-.47,9.37-1.4,14.36-2.11,2.64-.35,7.09-1.59,7.81,1.91.76,5.45.23,10.4,0,16.03-.26,3.66.69,6.98.67,10.59-.02,3.58-.04,6.8-.44,10.36-1.78,13.18-2.69,26.41-1.64,39.79.38,5.57,4.47,11.28-4.61,9.99-4.55-.3-8.22-.73-12.39-.48-5.55.2-11.4,1.63-17.07,1.27-3.96-.23-9.41.42-13.77.15-4.94-.37-10.62-.44-15.38-.34-6.94-.87-14.35-1.13-21.16-1.18-2.42-.82-.34-4.3.59-5.79,1.78-2.64,2.2-4.58,1.96-7.4-.06-2.78.08-5.65.11-8.46.2-3.83.95-7.43.52-11.25-.59-4.77-1.6-8.45-1.38-13.06M277.35,188.17,234.96,101.03c-3.06,3.27-6.93,6.41-9.89,9.58-3.87,4.5-7.94,9.36-11.95,13.77-5.43,5.71-10.78,11.04-15.92,17.21-2.41,2.96,4.16,2.37,5.74,2.67,10.63-.02,20.78-.13,31.39-1.65,8.17.07,16.87-.33,25.12.14,4.43.07,8.72.44,13.14.85,1.28.03,2.39-.27,3.06-1.05,1.15-1.25.92-3.85.83-5.81-.35-4.6-.84-9.76-1.4-14.51-1.34-11.01-1.17-21.95.13-32.84,1.27-7.24,1.46-14.7,1.5-22.03-.27-1.8,1.4-10.16-2.11-7.4-5.58,4.93-9.93,10.62-14.98,16.14-2.56,2.95-5.45,5.82-8.38,8.44-5.28,5.45-10.39,11.07-16.08,16.28l-.19.19ZM319.48,191.79c1.21-.31,4.55-4.46,5.7-5.49,3.29-3.36,7.09-9.12,9.57-12.5,2.46-3.21,4.39-6.57,6.94-9.5,4.54-4.55,8.21-8.58,12.59-13.02,1.32-1.64-.06-2.07-1.84-1.9-7.99,1.93-15.16,1.92-23.41,2.06-8.18-.11-16.63.62-24.74-.48-6.4-1.32-13.08-1.23-19.61-1.11-2.2-.03-3.43,1.33-3.26,3.46.8,7.07.03,14.83.83,21.79.48,5.72,2.25,11.24,3.33,16.76,1.83,8.56.18,17.35.4,26.12.03,2.72,1.34,2.02,2.5.73,1.36-1.57,2.93-3.04,4.56-4.35,3.4-2.44,7.03-4.65,9.96-7.7,5.14-3.98,10.54-8.82,15.38-13.27M310.58,229.86c4.28.16,8.59-.19,12.84-.41,3.03.06,6.25.58,9.18.33,2.38-.04,4.82-.7,7.19-.48,1.84.25,2.73.4,4.17-.13,3.27-1.71,6.87-2.02,10.47-1.47,2.77.17,3.21-2.77,2.87-5.01-.34-2.92-.31-6.28-.24-9.09-.92-17.59,4.03-34.3,1.72-51.67-.15-1.82.04-3.69,0-5.42-.05-.94-.26-1.53-.72-1.66-.65-.2-2.01.91-2.68,1.56-4.55,3.94-8.8,8.95-12.47,13.39-1.55,2.2-3.92,3.36-5.53,5.39-1.06,1.45-1.22,3.27-2.38,4.77-1.7,1.94-3.46,4.59-5.1,6.75-1.72,1.91-3.49,2.99-5.35,5.02-.79.8-1.62,1.67-2.22,2.41-1.5,1.93-1.82,3.37-3.78,4.86-6.58,5.44-12.27,11.65-19.34,16.6-2.38,1.62-3.37,4.32-5.28,6.36-1.61,1.63-3.32,3.68-2.66,5.07,1.27,1.91,5.1,1.67,7.36,2.08,3.84.35,7.8,1.13,11.67.75h.27ZM156.92,231.19c8.19-.18,16.51-.95,24.78-.36,3.38-.08,9.45,2.37,9.65-2.76-.05-6.13-.61-12.08.12-18.19.22-5.24.46-10.47.88-15.67.05-2.04-.59-3.85-1.15-5.78-1.06-3.15-1.03-6.78-1.16-9.98-.35-3-1.13-6.17-1.12-9.14-.51-2.61.55-11.08-2.69-11.26-1.37-.03-2.97,1.53-4.24,2.64-5.33,4.75-10.4,9.9-15.52,15.07-1.98,1.81-3.65,3.92-5.25,5.58-2.84,2.77-6.88,5.47-9.85,8.73-3.94,3.84-7.67,9.41-11.73,13.43-6.41,7.62-13.68,14.84-19.42,23.04-4.5,5.02-5.01,6.4,2.58,5.87,9.53-.19,17.14-1.2,26.47-1.14M212.66,298.93c6.47-5.33,11.46-11.58,17.46-17.45,1.53-1.63,3.15-2.91,4.45-4.61,1.06-1.49,1.4-2.84,2.58-3.61.96-.72,2.64-1.18,3.96-2.09,3.07-2.5,6.31-4.8,9.48-7.34,4.27-2.97,8.12-6.33,12.21-9.55,5.75-4.06,11.82-7.73,17.35-11.91,1.58-1.26,1.4-2.01-.31-2.18-6.68-.72-9.43-.54-16.3-.59-3.77.09-7.48-.15-11.08-.45-3.68.04-7.66.36-11.56.45-4.31.41-9.33.35-13.89.01-4.72.07-9.29.28-13.44-.2-1.89-.15-4.02-.1-6.07-.09-5.15.03-9.28-.68-8.88,5.9-.11,4.26-.51,7.71-.27,12,.23,4.52-.52,8.42-.76,12.97-.15,4.07.1,8.04-.37,12.05-.7,5.53-.58,11.21,0,16.95.5,3.26-.07,7.06.69,10.33.88,1.77,3.04-.83,3.95-1.47,3.54-3.17,7.13-5.67,10.6-8.94l.2-.18Z"/>
  <path class="cls-1" d="M331.48,449.84c-13.69.21-27.51,2.18-41.32,1.21-4.64-.25-9.85.73-14.19-1.23-3.04-1.59-4.57-4.73-6.88-7.26-7.94-7.85-14.8-16.88-22.56-24.95-7.81-7.44-14.47-15.98-21.75-23.85-9.81-10.08-19.99-19.82-29.98-29.55-8.56-8.43,4.67-8.54,10.47-8.18,6.3.14,12.39-.38,18.65-.15,3.72.05,7.54.39,11.23-.12,7.32-.93,10.38-8.65,15.22-13.26,6.2-6.61,13.17-13.1,19.62-19.49,3.65-3.73,12.84-14.15,15.32-4.17.96,45.85-11.81,34.08,36.97,36.39,10.42-.02,20.84-.12,31.22.86,7.47.29,13.46,1.4,13.4,10.36.92,8.92,1.74,18.14,2.31,27.18,1.02,9.68,2.54,19.16,2.02,28.77-.17,4.69-.74,9.4-.64,14.09.53,7.78,1.06,12.15-8.35,11.44-4.74-.21-9.47.86-14.22,1.27-5.43.41-10.92.22-16.25.63h-.28ZM258.31,356.18c6.35-.36,14.03,1.04,19.72-2.47,2.15-1.76,2.28-5.29,2.6-8.45.57-5.34.69-10.75,1.07-16.03.42-5.79-1.61-7.67-6-3.12-8.27,7.63-16.78,15.16-24.6,23.27-8.11,8.58-.14,6.78,6.93,6.8h.28ZM294.56,420.76c5.1-5.55,10.94-10.69,15.89-16.48,7.3-8.32,15.78-15.82,23.68-23.5,6.26-5.7,13.74-10.04,20.08-15.64,1.03-.84,2.48-2.55,1.54-3.38-1.4-1.33-4.65-1.3-6.68-1.45-8.76-.59-17.77-.63-26.73-.56-10.74-.51-21.82-.36-32.57-.29-5.19-.23-8.1,2.02-8.23,7.38-.62,9.05-.75,17.75-.92,26.85-.01,9.69.79,19.41.59,29.09,0,2.85-.78,6.55-.05,9.31.92,2.11,3.04-.78,3.96-1.63,2.95-3.32,6.29-6.32,9.25-9.49l.2-.21ZM245.4,408.87c3.4,3.47,6.94,7.11,10.24,10.73,6.1,6.47,11.41,14.08,18.4,19.52,3.71,2.04,2.92-4.68,3.35-6.88.3-4.03.62-8.11.76-12.15.19-7.13-.63-14.43-.46-21.68.41-8.5-.26-16.97.39-25.47.06-4.32,2.4-12.54-4.07-12.75-11.94.25-24.04-.07-35.92,1.04-9.09-.46-19.06-.66-28.04-.02-2.08.25-5.42-.09-6.84,1.26-.35.47-.17,1.16.45,2.03,2.19,2.7,4.88,5.22,7.3,7.78,6.66,6.63,14.46,14.01,20.95,21.15,4.65,4.82,8.65,10.46,13.3,15.22l.19.19ZM325.02,444.35c12.32-.14,24.52.21,36.41-2.75,3.06-1.14,3.65-4.36,3.78-7.33.33-7.14.93-14.38.42-21.56-.11-4-.94-7.97-1.49-11.86-.31-4.39-.48-8.98-1.09-13.41-.51-5.31-.54-10.13-1.34-15.17-.57-4.19-2.56-5.94-6.18-3.01-4.75,3.91-10.02,7.12-14.92,10.82-3.39,2.92-6.55,6.33-9.98,9.27-6.67,5.98-11.84,12.86-17.73,19.45-5.35,5.77-11.61,10.72-17.36,16.13-4.72,4.25-8.04,9.85-11.43,15.04-1.07,1.58-2.39,4.07.15,4.98,11.04,2.26,23.14,1.84,34.16-.34"/>
  <path class="cls-1" d="M204.95,353.96c-10.93-3.6-10.3-15.43-3.77-23.03,8.59-10.56,18.41-20.09,28.31-29.42,12.53-11.93,24.27-24.61,38.04-35.16,6.87-5.99,14.74-19.27,25.18-12.39,12.52,8.75,3.86,22.67-3.77,31.72-4.35,5.48-9.27,10.72-14.08,15.9-6.25,6.89-13.15,12.14-19.61,18.12-7.11,6.86-13.85,14.24-20.93,21.12-7.53,7.33-17.9,16.36-29.11,13.2l-.25-.07ZM210.49,349.13c13.21-.96,31.36-24.75,41.34-33.93,8.87-7.84,17.91-15.82,25.69-25.02,5.11-6.46,22.85-23.39,13.7-31.07-4.51-2.54-9.65,2.56-12.95,5.53-3.31,3.05-6.84,5.69-10.39,8.34-9.34,6.67-16.98,15.18-25.18,23.15-5.01,4.8-10.34,9.61-15.23,14.59-7.81,8.13-16.19,16.06-22.72,25.48-3.89,5.76-2.3,12.94,5.51,12.93h.24Z"/>
  <path class="cls-1" d="M246.6,232.55c-26.61,6.76-49.96-17.81-46.66-44.07,4.37-38.58,54.95-51.23,72.93-15.01,11.11,22.28-1.39,52.99-26.02,59.01l-.26.07ZM242.03,227.66c18.21-2.11,31.41-21.94,28.76-39.88-6.08-40.34-59.27-38.39-65.01,1.05-3.04,20.76,14.55,41.84,35.99,38.86l.27-.04Z"/>
  <path d="M237.82,98.78l3.71-3.67,2.7-2.83,2.06-2.09,4.84-5.25c.69-.74,2.11-1.44,2.87-2.27l2.11-2.33c1.4-1.54,2.73-2.78,4.01-4.38,1.05-1.31,2.28-2.58,3.39-3.83l4.86-5.5c2.45-2.76,4.93-5.06,7.74-7.48l.03,2.78c.02,1.55-.07,2.99-.1,4.57l-.23,12.38-.23,3.51c-.14,2.2-1.33,8.45-1.34,9.82-.02,2.17.09,3.51-.47,5.54-.77,2.82.09,6.2-.27,9.15-.11.86-.18,1.67-.13,2.48l.4,5.52c.09,1.2.31,2.63.28,3.7-.04,1.23-.25,1.91.36,2.98l.24,2.62.34,3.52.71,7.27c.27,2.76.36,5.6-.03,8.21-3.36.86-6.08-.34-9.16-.45l-6.4-.23-2.63-.1-5.5-.23c-1.07-.04-2.06-.03-3.14,0l-7.16.23c-2.08.07-4.17-.18-6.37-.26-.39-.01-10.97,1.37-10.74,1.36l-9.23.31c-1.69.06-3.22.02-4.93,0-3.13-.04-6.27.46-9.39.03l-5.04-.7,5.5-6.09,3.38-3.86c2.6-2.96,6.01-5.88,7.73-7.85,2.06-2.36,3.95-4.66,6.19-6.88.92-.91,1.69-2.14,2.49-3.08l3.84-4.51c2.25-2.65,7.23-6.22,9.85-9.6l2.84-2.48Z"/>
  <path d="M149.26,231.28l-10.66.21-6.17.57-4.44.2-9.83.29c-.53.02-1.32,0-1.64-.32-.32-.32.03-1.4.4-1.67,3.8-2.8,4.66-5.52,7.42-8.82l3.64-4.36,3.62-4.01c.74-.82,1.6-2.05,2.37-2.73,1.9-1.67,3.09-3.15,4.57-5.3.51-.74,4.53-4.07,7.68-8.79.77-1.15,1.82-2.12,2.72-3.15,2.45-2.81,6.61-6.91,9.82-9.01,2.94-1.92,4.27-4.97,7.77-8,1.19-1.03,2.42-1.7,3.23-3.01,1.19-1.91,2.99-3.24,4.62-4.76l8.41-7.85c1.04-.97,2.46-1.59,3.83-2.66,1.11,1.82,1.47,3.87,1.34,6.02-.1,1.68.32,3.34.37,4.93l.13,5,1.15,5.03c.07.32-.41,5.02.12,7.01l.89,3.33c1.02,3.79,1.78,2.9.97,7.87-.21,1.29-.28,2.2-.33,3.48l-.14,3.74-.14,4.59c-.14,4.77-.6,2.98-.51,6.94l.11,5.12.1,4.53c.01.56,1.15,5.94-.82,5.82l-4.05-.25c-4.3-.72-13.41-.82-17.62-.53l-3.83.27-4.4.05c-.99.01-2.04-.06-3.02.13l-7.66.09Z"/>
  <path d="M212.7,297.99c-1.03.65-1.68,1.97-2.4,2.76-1.12,1.24-3.67,1.37-4.51,3.01-1.36,2.62-4.03,2.03-6.98,6.72-1.14-1.33-.78-3.18-.79-4.75l-.02-3.3c-.02-3.24-.53-4.82-.68-8.59-.13-3.22-.26-6.38.11-9.61l.57-4.95c.08-.68.02-1.89.02-2.68v-4.86c-.03-6.97,1.01-5.93.84-12.9l-.18-7.53.54-4.1c.23-1.78-.8-4.01-.03-5.66,1.22-2.61,5.53-1.28,9.12-1.54,6.99-.51,6.56.62,10.67.35,1.41-.09,2.77.03,4.21.04,1.72.02,3.73-.57,5.52-.2,4.45.93,8.47.1,12.8-.03l7.25-.21,4.26-.48c.54.25,1.55.71,2.28.71l13.18.06c1.23,0,2.42.61,3.61-.46l2.25.73,7.37.33c-.34.64-.83.85-1.38.94-.96,2.05-2.9,2.82-4.83,3.55-.79.85-2.15,2.03-3.37,2.75l-1.51.89c-1.1.65-2.03,1.31-3.05,2.11-.56.44-1.82.81-2.39,1.42-.82.86-2.12,1.27-2.95,1.94l-3.25,2.64c-2.12,1.72-3.91,3.81-6.43,4.97-2.03.94-3.38,3.04-5.13,4.12-1.26.78-2.31,1.3-3.34,2.18-1.44,1.22-2.3,2.42-3.87,3.59-1.07.8-.5.21-2.94,1.68l-.69.53c-.18.33-.35.31-.55.81s-.87,1.17-1.41,1.68l-3.71,3.51-3.75,3.86-1.55,1.58-4.98,5.05-1.61,1.82c-1.92,2.17-3.83,3.92-6.3,5.49Z"/>
  <path d="M322.11,189.58c.56-.1,2.27-2.45,2.48-2.9.55-1.2,1.6-1.88,2.32-2.85l6.32-8.52,1.98-2.98,2.79-3.52c.42-.52.93-1.87,1.23-2.49l5.44-5.5c1.56-1.58,3.32-3.06,4.66-4.78.69-.89,1.19-1.75,2.03-2.42l3.94-3.14c-1.41-1.01-3.08-.9-4.66-.49l-3.27.85c-1.8.47-3.62.81-5.46,1.16l-1.77-.66c-1.37.77-2.78.47-4.23.51l-4.8.12-5.83.16-5.24-.05h-8.65s-2.81.1-2.81.1c-2.2.08-4.46-.87-6.68-1.08-2.66-.25-5.47-.75-8.14-.74-4.04.02-7.69.44-11.76-.16-.11,2.25-.21,4.35.28,6.31.85,3.39-.22,6.84.03,10.37l.41,5.75c.17,2.36,0,6.02,1.35,8.7,0,.5-.02,1.61.11,2.07l1.18,4.42c.6,2.25,1.08,4.32,1.24,6.72.11,1.66.76,3.5.52,5.08-.41,2.76-.04,2.97-.19,5.17l-.37,5.52c-.14,2.12-.05,4.22.03,6.54.04,1.19-1.03,2.5.39,3.34l1.72-2.4c.33-.47,1.07-1.09,1.45-1.53,1.06-1.24,2.04-2.38,3.74-2.9l.68-1.21,3.44-1.81c1.61-.85,2.38-1.74,3.64-3.18,2.54-2.9,9.37-6.2,11.32-10.23l2.65-1.19,1.97-2.28c.87-1.01,1.98-1.91,3.08-2.73l1.44-1.16Z"/>
  <path d="M310.05,230.18c-4.36.06-8.49-.41-12.8-.94-1.88-.22-5.07-.59-5.81-2.38-.66-1.53,1.43-3.9,3-6,1.79-2.33,3.7-4.53,6.06-6.33,6.49-5.16,13.1-11.23,18.89-16.7,3.61-5.16,8.48-8.96,12.42-13.92,3.46-4.11,4.88-8.71,9.01-12.3,4.88-4.81,9.53-11.32,14.49-15.32,1.18-.94,2.17-1.43,2.75-1.19,1.55,1.35.74,4.75,1.06,6.95,1.98,17.57-2.72,34.84-1.85,52.47-.54,3.61,1.81,10.77-1.81,12.74-2.11.97-5.41.21-7.97.99-1.1.31-2.17.74-3.26.99-6.75.88-14.21.75-21.18.57-4.32.08-8.46.37-12.72.35h-.28Z"/>
  <path d="M362.92,402.49c1.8.69.9,3.17.96,4.6.22,5.18,1.42,10.21.64,15.35-.42,2.74.23,5.38-.17,8.17l-.58,4.05c-.18,1.23,1.76,6.67-1.81,7.06l-7.94.86-8.34,1.09c-2.81.37-5.47.37-8.35.34l-6.25-.07-5.84.23c-1.44.06-3.69.34-5.1.36-2.94.04-1.56.88-4.71,1.04-1.48.08-1.29-.22-2.68-.04l-6.53.57c-.1.01-1.42-.33-5.11.19-1.43.2-3.35-.26-4.94-.34-2.95-.14-5.72-.4-8.64-.74-2.01-.23-3.68.07-5.93-1.01l4.39-5.16c1.98-2.33,1.45-4.71,4.48-7.21.92-.76,1.05-1.16,1.61-2.33.52-1.09,2-2.22,2.86-3.25,1.19-1.44,2.62-2.23,4.1-3.3.83-.6,1.83-1.68,2.64-2.45l1.8-1.71c.97-.92,2.1-1.85,3-2.79,1.08-1.13,1.89-1.74,3.26-2.61.88-.56,1.82-2.27,2.86-3.09.82-.65,1.43-1.62,2.13-2.39,1.61-1.78,1.97-2.12,3.06-4.26.68-1.14.32-1.24,1.96-1.74l.3-.3q1.61-1.98,2.8-3.61c.64-.87,1.64-1.26,2.37-2.09l1.74-1.96,4.45-4.39c.49-.49,1.79-1.07,2.44-1.61,1.18-.98,1.98-2.3,2.97-3.28,1.3-1.29,2.5-2.15,3.5-3.88l4.87-2.09c.17-1.23.99-1.72,1.85-1.74.56-.01,1.17-.95,1.56-1.23l3.35-2.47c1.52-1.12,3.5-1.44,4.01-3.47.26-1.05,2.36-1.74,3.46-2.21,1.02,2,1.18,3.93,1.01,6.07-.24,3.04,1.43,2.28.97,6.89-.33,3.28.59,6.66.84,11.3.28,5.18,1.07,3.83,1.15,6.44"/>
  <path d="M245.64,408.27c-2.06-2.14-4.32-3.99-5.79-6.48-1.78-3.01-4.29-5.04-6.56-7.6-3.76-4.25-7.47-8.15-11.51-12.1l-10.67-10.4-5.42-5.98c-1.09-1.21-2.65-1.6-3.65-3.23,3.52-.8,7.22,1.18,9.57-.22.95-.56,1.57-.33,2.58-.33l14.87.04c1.09,0,2.69-.47,3.64-.54.79.66,1.17.64,2.27.67.61.02,1.76.47,2.44.68l8.87-1.31c1.1-.16,5.39.36,9.36.09l2.81-.19c2.06-.14,4.06-.03,6.11.02l2.89.08,3.61.03c4.07.04,4.61-1.83,6.51-.67-1.03,5.59.69,3.51-.33,9.86-.81,5.03-.64,9.79-.53,14.78l.06,2.59c.03,1.44.19,3,.03,4.42-.26,2.32-.23,4.41-.17,6.74.08,3.19-.48,5.6.04,8.59.22,1.25.3,2.67.36,4.02l.17,3.82c.1,2.24-.22,4.4-.35,6.66l-.22,3.84-1.01,13.71c-1.53-.62-2.43-1.53-3.37-2.73-1.09-1.41-2.45-2.57-3.7-3.86l-3.59-3.7c-2.62-2.7-4.52-5.53-7.3-8.58l-4.3-4.71-7.72-8.03Z"/>
  <path d="M295.03,419.73c-3.54,3.79-4.24,3.5-7.75,7.49l-2.43,2.76c-2.5,2.84-.72.85-2.67,3.74-.15.21-.97-.58-.96-.87.29-7.43,1.21-7.02.95-15.68l-.11-3.63c-.02-.59.11-1.65.16-2.26-.55-1.55-.62-2.75-.46-4.35.12-1.24-.08-2.67-.19-4.01-.14-1.71.11-3.56.14-5.4.08-4.29-.69-4.73-.17-8.41.64-4.45-.22-4.02.26-9.37l.25-2.79c.08-.93-.13-1.91-.19-2.87-.14-2.28.63-4.74.64-7.02l.02-2.24c.01-1.47.34-3.15.87-4.48,4.9.7,5.92-.06,11.03.07l4.51.11c2.19.05,4.19-.36,6.36-.18l5.37.45,4.87-.45c5.12-.48,2.57,1.35,10.98.51,2.56-.26,5.06-.18,7.58-.14l4.3.08c1.44.03,2.51-.03,3.97.33,1.17.29,2.62.2,3.94.36.95.11,1.56-.06,2.6-.32,1.36-.33,3.27.57,4.7.76,1.16.16,2.11.02,3.04.85l-11.4,9.01c-2.79,2.21-5.47,4.18-8.69,5.92l-3.09,2.95-3.84,3.84c-2.15,2.15-4.43,4.04-6.64,6.15l-3.69,3.53c-2.22,2.12-4.26,4.27-6.31,6.53l-4.78,5.29-2.95,3.26-4.38,4.29c-1.47,1.43-2.68,2.73-4.42,3.94-.57.39-.97,1.76-1.44,2.25Z"/>
  <path d="M258.23,355.36l-8.41.27c-1.07.03-2.08.32-3.1-.25,2.28-2.27,4.1-4.44,5.95-7.06,1.91-2.7,3.12-2.09,5.81-5.57.95-1.23,1.78-1.75,3.07-2.62,1.4-.96,2.5-2.83,3.75-4.07,1.89-1.86,3.81-3.32,5.84-4.98,1.05-.86,2.13-2.11,3.12-3.04l4.44-4.18c.33-.31.7-.85,1.02-.92,1.02-.19,1.15,2.28,1.11,3.09-.11,1.92-.08,3.63-.04,5.56.03,1.14-.89,2.9-.69,4.08.77,4.66-.23,2.78-.29,8.41-.02,1.54-.33,3.14-.52,4.74-.18,1.49-.11,3.44-.84,4.85l-5.63,1.3c-1.62.37-3.62.1-5.35.28-5.33.55-4.61-.05-9.23.1Z"/>
  <path d="M212.55,348.2c-4.83,1.6-8.73-2-9.61-5.35-.73-2.78.04-4.72,1.86-6.8l5-5.71,4.49-5.17,2.1-2.41,2.93-3.35c.42-.48,1.59-1.15,2.11-1.57,1.95-3.52,2.53-2.24,5.28-5.49,1.57-1.86,3.02-3.62,4.81-5.25l3.63-3.29,5.79-5.28,3.67-3.3c3.34-3.01,3.64-4.35,7.06-7.5l2.99-2.76,6.6-6.28c2.41-2.29,7.43-5.45,10.45-7.2.86-.5,1.88-.88,2.41-1.62,1.41-1.97,3.08-3.38,4.88-4.94,1.86-1.61,6.4-8.28,9.07-6.85.75.4,1.72.93,2.45,1.39,1.86,1.17,2.22,3.95,2.9,5.7.74,1.9.32,2.73-.59,4.2-1.09,1.77-2.24,3.33-3.44,5.04l-5.82,8.29-1.65,2.05c-.55.68-2.9,2.82-3.62,3.34-2.03,2.76-4.04,5.33-6.4,7.75l-2.76,2.84-3.75,3.91-2.03,2.1c-3.37,3.48-6.04,3.96-8.38,7.22-4.18,2.07-5.91,5.39-9.22,8.72-5.39,5.44-4.65,6.08-11.08,11.43-1.83,1.53-3.37,2.95-4.89,4.83-.61.76-1.61,1.23-2.31,1.87l-3.05,2.79-4.35,3.5c-4.82.96-2.64,1.53-7.52,3.15Z"/>
  <path d="M242.53,228.03c-2.94.49-10.94-.01-13.55-.87-3.02-.99-9.31-4.44-11.29-6.65s-3.8-4.52-5.57-6.96c-1.37-1.88-2.28-4.01-3.36-5.99l-1.35-2.47c-1.45-2.64-1.74-5.4-2.11-8.39-.1-.8-.32-1.64-.25-2.45.13-1.46-.06-3.12.25-4.4l1.02-4.19c.52-2.14,1.52-4.22,2.39-6.25l1.25-2.92,3.18-4.95c1.29-2,.71-2.89,5.3-6.02,1.23-.84,2.55-1.34,4.03-1.88,4.23-1.56,7.89-2.99,12.45-3.69l8.7-1.35c1.43-.22,3.44.3,4.84.61,2.46.55,5.3,2.05,7.23,3.45l2.44,1.77,2.99,2.19c4.54,3.34,6.18,5.64,7.17,11.11,1.98,4.09,2.62,9.74,2.18,14.11-.16,1.6.23,3.46-.03,5.05-.18,1.13-1.11,2.41-1.15,3.58-.11,3.33-.47,2.74-2.43,6.73l-2.4,4.89c-1.53,3.12-6.1,7.29-8.33,10.19-1.71,2.22-3.63,3.15-6.22,4-1.35.45-2.58,1.41-4.28,1.26-.94-.08-1.97.31-3.09.49Z"/>
</svg>