<?xml version="1.0" encoding="UTF-8"?>
<svg id="Layer_1" data-name="Layer 1" xmlns="http://www.w3.org/2000/svg" viewBox="0 0 1200 1200">
  <defs>
    <style>
      .cls-1, .cls-2 {
        stroke: #000;
        stroke-miterlimit: 10;
        stroke-width: 5px;
      }

      .cls-2 {
        fill: #fff;
      }
    </style>
  </defs>
  <path class="cls-2" d="M693.7,441.87c-6.23-8.96-6.96-22.55-8.36-31.96-1-5.25-1.78-10.09-1.82-15.81.11-12.19,2.43-24.51-.68-36.53-.95-6.17-2.26-9.61-8.78-10.55-57.84-6.29-115.2-.04-173.15,1.58-5.32-.31-10.54-1.38-15.89-1.08-7.09.24-10.5,5.2-10.05,12.27-.13,11.88,2.45,23.17,4.37,34.93,1.04,12.26,2.6,25.31,1.22,37.47-.95,13.92,3.13,28.66,2.01,42.45-1.29,13.65.62,27.67-.39,41.28-.61,9-1.7,18.08-.41,27.38.67,4.19-.39,9.06.07,12.84,2.93,5.93,10.81,4.84,17.05,5.42,5.94.17,16.39.39,22.45.56,30.58,1.66,65.71.04,95.95.14,27.54,1.35,51.85.41,79.31,1.12,11.26.07,30.91-8.3,24.74,11.6-1.84,5.61-7.38,9.06-12.07,12.44-8.88,6.15-18.48,13.91-26.75,20.58-17.22,12.56-34.18,23.68-50.88,36.88-12.42,9.28-23.99,16.29-34.73,26.88-12.96,10.33-23.91,23.73-35.37,36-4.28,4.34-7.5,5.92-11.71,9.82-5.57,5.29-10.85,11.25-16.7,16.15-14.46,13.61-30.86,24.82-45.76,37.98-17.91,13.84-13.99-14.63-15.23-24.73-1.23-14.31-2.85-27.7-3.5-42.18-.35-31.83,1.59-63.89,4.02-95.5.88-9.89-1.13-19.87-2.29-29.73-.6-4.42.36-8.65-3.63-9.98-18.97-1.89-39.64-2.37-59.16-1.25-27.33,1.25-70.92-1.06-101.05,3.25-14.43,2.56-29.47-.51-44.14,1.55-13.12,1.41-25.84-4.91-12.05-17.51,4.79-4.77,12.69-7.03,17.76-11.9,26.26-30.02,52.94-59.59,78.8-89.93,14.6-18.03,33.24-32.54,50.43-48.47,12.02-12.82,24.68-25.48,36.91-37.76,4.8-4.12,9.77-7.67,13.71-11.95,4.44-4.64,9.03-10.77,11.07-17.19,1.35-4.01,3.14-8.13,5.7-11.45,26.64-28.33,54.6-56.17,79.47-85.94,27.19-27.18,55.01-54.12,82.05-81.44,12.6-12.7,22.12-26.39,34.81-38.91,8.55-6.92,13.97-19.45,24.22-23.61,13.76-1.88,8.98,17.08,9.44,25.46-1.07,30.67-1.09,62.27-6.88,92.6l-.91,16.73c.08,25.01,4.42,51.49,7.01,76.26,1.59,7.16.39,14.58,1.19,21.83,1.03,5.14,6.03,6.87,10.94,7.29,27.66-1.43,53.97,3.92,81.64,4.52,19.19-.29,40.3-.53,59.88-1.15,12.35-1.17,23.43-3.49,35.92-5.27,6.61-.88,17.72-3.99,19.53,4.78,1.89,13.63.58,26,.02,40.09-.65,9.16,1.72,17.46,1.68,26.48-.04,8.96-.11,17-1.11,25.9-4.45,32.96-6.72,66.05-4.09,99.51.96,13.93,11.18,28.21-11.52,24.97-11.38-.75-20.54-1.82-30.98-1.2-13.89.5-28.52,4.08-42.7,3.18-9.9-.59-23.54,1.06-34.44.38-12.35-.93-26.55-1.09-38.47-.85-17.36-2.18-35.88-2.83-52.9-2.95-6.06-2.06-.84-10.76,1.47-14.49,4.45-6.59,5.51-11.45,4.89-18.5-.14-6.96.19-14.12.29-21.17.51-9.58,2.39-18.59,1.3-28.14-1.47-11.94-4-21.12-3.46-32.65M684.39,444.98,578.38,227.07c-7.66,8.17-17.33,16.03-24.74,23.96-9.67,11.25-19.86,23.41-29.89,34.43-13.59,14.27-26.95,27.62-39.82,43.04-6.02,7.4,10.41,5.92,14.36,6.68,26.59-.05,51.95-.32,78.51-4.12,20.43.18,42.2-.82,62.81.36,11.07.18,21.81,1.09,32.86,2.13,3.2.07,5.98-.67,7.65-2.63,2.88-3.12,2.29-9.62,2.09-14.52-.89-11.5-2.09-24.4-3.51-36.28-3.36-27.54-2.92-54.88.31-82.12,3.18-18.1,3.65-36.75,3.76-55.08-.68-4.5,3.49-25.42-5.28-18.5-13.96,12.34-24.83,26.56-37.45,40.35-6.39,7.37-13.62,14.57-20.96,21.11-13.2,13.62-25.98,27.68-40.21,40.72l-.48.48ZM789.74,454.05c3.04-.77,11.38-11.15,14.24-13.73,8.23-8.39,17.73-22.81,23.93-31.26,6.15-8.02,10.98-16.44,17.36-23.75,11.35-11.39,20.54-21.46,31.49-32.57,3.31-4.11-.16-5.19-4.6-4.76-19.99,4.82-37.91,4.79-58.55,5.16-20.45-.28-41.58,1.55-61.87-1.21-16.01-3.3-32.7-3.07-49.04-2.78-5.5-.08-8.58,3.34-8.14,8.64,2,17.68.07,37.08,2.09,54.49,1.21,14.29,5.62,28.11,8.33,41.9,4.58,21.41.44,43.38,1,65.31.07,6.79,3.35,5.06,6.24,1.82,3.41-3.93,7.34-7.59,11.4-10.88,8.49-6.09,17.58-11.62,24.91-19.26,12.87-9.94,26.37-22.04,38.47-33.19M767.48,549.24c10.7.39,21.48-.47,32.12-1.02,7.57.14,15.64,1.45,22.96.82,5.95-.09,12.05-1.74,17.99-1.2,4.59.61,6.83,1,10.43-.31,8.17-4.28,17.19-5.06,26.19-3.68,6.93.43,8.04-6.93,7.19-12.52-.84-7.31-.78-15.7-.61-22.74-2.3-43.99,10.07-85.77,4.3-129.22-.37-4.56.1-9.24-.02-13.57-.13-2.36-.64-3.83-1.8-4.14-1.63-.5-5.02,2.28-6.71,3.91-11.38,9.85-22,22.38-31.18,33.49-3.89,5.51-9.81,8.41-13.82,13.48-2.64,3.63-3.05,8.18-5.96,11.92-4.26,4.85-8.65,11.48-12.76,16.88-4.31,4.77-8.74,7.48-13.37,12.56-1.97,1.99-4.04,4.18-5.56,6.02-3.75,4.83-4.54,8.43-9.45,12.14-16.46,13.61-30.69,29.14-48.36,41.52-5.95,4.06-8.43,10.8-13.2,15.91-4.04,4.07-8.31,9.21-6.65,12.68,3.18,4.77,12.76,4.17,18.42,5.2,9.61.86,19.51,2.83,29.19,1.88l.68-.02ZM383.22,552.58c20.47-.44,41.27-2.37,61.96-.89,8.45-.21,23.63,5.93,24.12-6.9-.13-15.34-1.52-30.2.31-45.5.54-13.09,1.16-26.18,2.2-39.18.12-5.1-1.47-9.63-2.88-14.45-2.66-7.87-2.58-16.97-2.91-24.95-.89-7.5-2.83-15.43-2.81-22.85-1.26-6.53,1.38-27.7-6.71-28.15-3.44-.07-7.42,3.83-10.61,6.61-13.32,11.89-26,24.76-38.8,37.68-4.95,4.54-9.14,9.81-13.14,13.95-7.11,6.93-17.21,13.69-24.63,21.82-9.85,9.6-19.19,23.54-29.34,33.59-16.02,19.06-34.21,37.11-48.57,57.62-11.25,12.56-12.54,16,6.45,14.69,23.83-.49,42.85-3,66.21-2.86M522.62,721.97c16.17-13.34,28.65-28.95,43.65-43.64,3.83-4.07,7.88-7.29,11.12-11.52,2.66-3.72,3.49-7.11,6.44-9.04,2.41-1.8,6.59-2.94,9.9-5.23,7.68-6.26,15.77-12,23.72-18.35,10.67-7.42,20.3-15.82,30.53-23.88,14.39-10.14,29.57-19.34,43.4-29.79,3.95-3.16,3.49-5.04-.77-5.46-16.7-1.81-23.58-1.34-40.77-1.48-9.42.23-18.71-.36-27.7-1.12-9.19.1-19.16.9-28.9,1.13-10.79,1.04-23.33.88-34.73.04-11.81.19-23.23.69-33.6-.51-4.73-.38-10.06-.24-15.18-.22-12.88.08-23.22-1.7-22.21,14.75-.27,10.66-1.28,19.28-.68,30.01.57,11.3-1.3,21.06-1.89,32.43-.38,10.19.25,20.1-.93,30.12-1.75,13.83-1.44,28.05-.02,42.4,1.25,8.16-.18,17.65,1.74,25.82,2.19,4.44,7.6-2.07,9.89-3.67,8.85-7.92,17.84-14.19,26.5-22.35l.51-.46Z"/>
  <path class="cls-2" d="M819.74,1099.35c-34.24.53-68.81,5.44-103.33,3.04-11.6-.64-24.64,1.84-35.49-3.08-7.6-3.99-11.42-11.83-17.19-18.16-19.85-19.62-37.01-42.22-56.43-62.39-19.52-18.62-36.19-39.95-54.4-59.65-24.54-25.2-49.99-49.57-74.98-73.89-21.4-21.08,11.67-21.35,26.18-20.45,15.74.35,30.98-.95,46.63-.38,9.29.12,18.86.98,28.07-.3,18.31-2.32,25.97-21.64,38.05-33.16,15.5-16.54,32.95-32.75,49.07-48.74,9.12-9.32,32.1-35.39,38.31-10.44,2.4,114.65-29.55,85.22,92.46,91,26.05-.05,52.11-.31,78.08,2.15,18.69.72,33.67,3.5,33.5,25.9,2.31,22.32,4.35,45.35,5.78,67.97,2.55,24.2,6.36,47.91,5.06,71.95-.43,11.74-1.85,23.51-1.59,35.25,1.33,19.45,2.66,30.39-20.87,28.6-11.86-.52-23.68,2.14-35.55,3.19-13.58,1.02-27.32.55-40.65,1.57l-.7.03ZM636.78,865.13c15.88-.91,35.08,2.61,49.32-6.17,5.37-4.41,5.69-13.23,6.5-21.12,1.41-13.35,1.73-26.88,2.67-40.09,1.05-14.49-4.02-19.18-15-7.81-20.67,19.08-41.95,37.91-61.53,58.18-20.28,21.45-.34,16.96,17.34,17.01h.7ZM727.41,1026.63c12.74-13.89,27.36-26.73,39.73-41.21,18.25-20.8,39.46-39.56,59.21-58.76,15.65-14.26,34.36-25.1,50.21-39.12,2.58-2.09,6.2-6.39,3.85-8.46-3.51-3.33-11.62-3.25-16.71-3.62-21.92-1.47-44.43-1.59-66.85-1.41-26.87-1.27-54.57-.89-81.45-.73-12.98-.58-20.26,5.05-20.57,18.45-1.54,22.64-1.88,44.38-2.3,67.14-.03,24.24,1.97,48.53,1.48,72.75,0,7.12-1.95,16.39-.13,23.28,2.3,5.28,7.61-1.96,9.92-4.08,7.38-8.3,15.73-15.8,23.13-23.72l.49-.52ZM604.49,996.9c8.5,8.68,17.35,17.79,25.61,26.83,15.26,16.19,28.53,35.2,46.03,48.82,9.28,5.1,7.3-11.71,8.37-17.2.74-10.07,1.55-20.29,1.89-30.37.47-17.82-1.59-36.09-1.15-54.21,1.04-21.24-.66-42.44.97-63.68.15-10.79,6.01-31.37-10.18-31.87-29.85.63-60.11-.17-89.83,2.61-22.73-1.15-47.66-1.66-70.11-.05-5.21.63-13.55-.24-17.1,3.16-.88,1.19-.42,2.91,1.11,5.09,5.48,6.76,12.2,13.06,18.25,19.46,16.66,16.57,36.17,35.04,52.39,52.9,11.64,12.05,21.62,26.15,33.26,38.05l.47.49ZM803.59,1085.63c30.8-.36,61.33.53,91.04-6.87,7.64-2.84,9.13-10.9,9.44-18.34.82-17.84,2.33-35.96,1.05-53.92-.27-10-2.34-19.94-3.72-29.66-.78-10.97-1.2-22.47-2.73-33.53-1.26-13.29-1.35-25.32-3.35-37.93-1.42-10.47-6.4-14.85-15.46-7.52-11.88,9.77-25.06,17.8-37.3,27.05-8.47,7.3-16.37,15.82-24.96,23.19-16.68,14.95-29.61,32.16-44.34,48.63-13.38,14.43-29.03,26.8-43.41,40.34-11.8,10.64-20.1,24.63-28.58,37.62-2.69,3.94-5.98,10.18.37,12.45,27.6,5.65,57.86,4.61,85.41-.84"/>
  <path class="cls-2" d="M503.33,859.59c-27.32-9-25.76-38.59-9.42-57.59,21.49-26.4,46.05-50.25,70.79-73.58,31.35-29.84,60.69-61.54,95.12-87.91,17.17-14.98,36.86-48.19,62.97-30.99,31.31,21.89,9.64,56.69-9.44,79.33-10.89,13.71-23.19,26.81-35.21,39.77-15.64,17.24-32.87,30.35-49.04,45.32-17.77,17.15-34.64,35.61-52.34,52.82-18.83,18.33-44.76,40.9-72.79,33.02l-.63-.19ZM517.18,847.5c33.04-2.4,78.42-61.9,103.38-84.85,22.17-19.6,44.79-39.57,64.26-62.57,12.78-16.16,57.14-58.5,34.25-77.7-11.28-6.36-24.14,6.39-32.38,13.84-8.28,7.63-17.09,14.23-25.99,20.87-23.36,16.68-42.47,37.96-62.98,57.9-12.53,12.01-25.87,24.02-38.09,36.49-19.54,20.32-40.5,40.15-56.82,63.72-9.74,14.39-5.75,32.35,13.77,32.33h.61Z"/>
  <path class="cls-2" d="M607.48,555.97c-66.55,16.9-124.93-44.53-116.67-110.2,10.94-96.48,137.42-128.11,182.39-37.53,27.78,55.71-3.49,132.52-65.07,147.57l-.65.16ZM596.07,543.75c45.54-5.29,78.54-54.86,71.92-99.72-15.2-100.87-148.22-96.01-162.58,2.63-7.6,51.93,36.38,104.64,89.99,97.17l.67-.09Z"/>
  <path class="cls-1" d="M585.54,221.45l9.28-9.19,6.76-7.08,5.16-5.24,12.1-13.13c1.71-1.86,5.29-3.59,7.18-5.68l5.28-5.83c3.49-3.85,6.82-6.94,10.04-10.95,2.62-3.27,5.7-6.45,8.47-9.59l12.16-13.74c6.12-6.91,12.32-12.65,19.36-18.71l.07,6.94c.04,3.89-.18,7.48-.25,11.43l-.57,30.95-.58,8.79c-.36,5.5-3.33,21.14-3.36,24.56-.05,5.42.21,8.77-1.18,13.86-1.93,7.05.23,15.5-.69,22.89-.27,2.15-.46,4.19-.31,6.19l1,13.8c.22,3,.79,6.57.71,9.25-.09,3.07-.62,4.77.89,7.45l.6,6.56.85,8.81,1.76,18.19c.67,6.89.91,14.01-.08,20.54-8.41,2.15-15.2-.86-22.92-1.13l-16-.57-6.57-.26-13.76-.57c-2.69-.11-5.15-.08-7.84,0l-17.9.57c-5.19.17-10.43-.45-15.92-.65-.97-.03-27.44,3.42-26.85,3.4l-23.09.77c-4.22.14-8.05.05-12.32,0-7.82-.09-15.68,1.16-23.49.07l-12.59-1.76,13.75-15.23,8.46-9.66c6.5-7.41,15.02-14.71,19.34-19.64,5.16-5.9,9.87-11.66,15.48-17.2,2.3-2.28,4.22-5.35,6.23-7.71l9.6-11.29c5.63-6.62,18.09-15.54,24.63-24.01l7.11-6.2Z"/>
  <path class="cls-1" d="M364.07,552.8l-26.67.53-15.43,1.43-11.11.49-24.58.74c-1.32.04-3.31,0-4.11-.8-.8-.8.07-3.5.99-4.18,9.5-7.01,11.66-13.81,18.55-22.06l9.09-10.91,9.05-10.02c1.86-2.06,4.01-5.14,5.94-6.83,4.76-4.18,7.72-7.88,11.43-13.27,1.28-1.86,11.32-10.17,19.21-21.97,1.92-2.87,4.54-5.31,6.79-7.87,6.14-7.02,16.53-17.29,24.55-22.52,7.35-4.8,10.67-12.43,19.43-20,2.97-2.57,6.05-4.26,8.08-7.53,2.98-4.78,7.47-8.1,11.54-11.91l21.02-19.62c2.6-2.43,6.14-3.98,9.57-6.64,2.78,4.54,3.68,9.68,3.35,15.05-.26,4.21.81,8.35.92,12.34l.33,12.52,2.87,12.58c.18.81-1.03,12.54.31,17.52l2.23,8.32c2.54,9.47,4.46,7.24,2.43,19.68-.53,3.23-.7,5.49-.82,8.69l-.36,9.34-.35,11.47c-.36,11.93-1.49,7.45-1.28,17.37l.28,12.81.24,11.32c.03,1.41,2.87,14.85-2.05,14.54l-10.12-.63c-10.75-1.8-33.54-2.05-44.06-1.32l-9.58.67-11.01.11c-2.47.03-5.1-.14-7.55.33l-19.16.23Z"/>
  <path class="cls-1" d="M522.71,719.62c-2.58,1.64-4.21,4.92-6.01,6.91-2.81,3.1-9.17,3.43-11.29,7.52-3.39,6.55-10.07,5.06-17.45,16.81-2.86-3.32-1.96-7.96-1.98-11.88l-.05-8.25c-.05-8.11-1.32-12.04-1.7-21.47-.32-8.06-.66-15.95.27-24.03l1.43-12.39c.2-1.7.04-4.72.04-6.69l-.03-12.16c-.04-17.43,2.54-14.83,2.14-32.25l-.44-18.82,1.34-10.26c.58-4.46-2.01-10.02-.09-14.15,3.05-6.53,13.83-3.2,22.79-3.86,17.49-1.28,16.41,1.55,26.67.88,3.53-.23,6.92.07,10.54.11,4.31.05,9.32-1.43,13.81-.49,11.12,2.32,21.19.24,32.02-.08l18.14-.54,10.65-1.2c1.35.62,3.87,1.78,5.69,1.78l32.95.14c3.07.01,6.05,1.54,9.03-1.14l5.64,1.81,18.44.81c-.85,1.6-2.08,2.11-3.45,2.34-2.4,5.12-7.26,7.06-12.08,8.88-1.97,2.12-5.37,5.06-8.44,6.88l-3.78,2.23c-2.76,1.63-5.07,3.28-7.61,5.27-1.39,1.09-4.54,2.04-5.97,3.55-2.05,2.16-5.3,3.18-7.37,4.86l-8.12,6.61c-5.3,4.31-9.79,9.53-16.08,12.44-5.07,2.35-8.46,7.61-12.84,10.31-3.16,1.95-5.77,3.25-8.35,5.45-3.59,3.05-5.75,6.06-9.67,8.99-2.67,1.99-1.24.53-7.36,4.21l-1.73,1.31c-.45.83-.87.78-1.38,2.04-.52,1.27-2.18,2.92-3.53,4.2l-9.28,8.78-9.39,9.65-3.88,3.96-12.46,12.63-4.03,4.55c-4.81,5.43-9.57,9.82-15.75,13.73Z"/>
  <path class="cls-1" d="M796.31,448.52c1.41-.25,5.68-6.12,6.21-7.26,1.38-3.01,4.01-4.71,5.81-7.13l15.8-21.31,4.96-7.44,6.97-8.79c1.04-1.31,2.31-4.67,3.08-6.23l13.61-13.76c3.91-3.95,8.3-7.66,11.65-11.96,1.73-2.23,2.97-4.37,5.08-6.04l9.85-7.84c-3.54-2.52-7.69-2.25-11.66-1.22l-8.18,2.13c-4.49,1.17-9.05,2.03-13.66,2.9l-4.42-1.66c-3.43,1.92-6.95,1.19-10.57,1.28l-12.01.31-14.58.41-13.1-.14h-21.64s-7.03.24-7.03.24c-5.5.19-11.16-2.17-16.7-2.69-6.66-.62-13.67-1.88-20.36-1.84-10.1.05-19.23,1.1-29.42-.39-.27,5.64-.54,10.88.7,15.78,2.14,8.47-.56,17.09.07,25.94l1.02,14.37c.42,5.89,0,15.05,3.37,21.76.01,1.26-.04,4.02.27,5.19l2.94,11.04c1.5,5.63,2.7,10.79,3.11,16.8.28,4.15,1.89,8.75,1.31,12.71-1.01,6.91-.1,7.42-.46,12.92l-.92,13.8c-.35,5.3-.13,10.56.09,16.36.11,2.98-2.58,6.24.98,8.36l4.3-6.01c.84-1.17,2.67-2.72,3.62-3.83,2.65-3.1,5.11-5.95,9.35-7.25l1.69-3.01,8.61-4.52c4.03-2.12,5.96-4.35,9.11-7.96,6.34-7.26,23.43-15.5,28.31-25.59l6.63-2.99,4.92-5.7c2.19-2.53,4.96-4.78,7.69-6.83l3.61-2.9Z"/>
  <path class="cls-1" d="M766.17,550.05c-10.91.16-21.24-1.03-32.01-2.35-4.71-.55-12.68-1.47-14.53-5.95-1.64-3.82,3.57-9.75,7.5-15,4.47-5.84,9.26-11.32,15.16-15.82,16.22-12.89,32.77-28.08,47.24-41.75,9.03-12.91,21.19-22.41,31.06-34.8,8.65-10.28,12.21-21.79,22.52-30.76,12.2-12.03,23.83-28.31,36.22-38.32,2.95-2.36,5.42-3.56,6.88-2.97,3.88,3.38,1.85,11.87,2.66,17.38,4.96,43.93-6.79,87.14-4.61,131.22-1.34,9.02,4.52,26.92-4.52,31.87-5.28,2.42-13.52.52-19.94,2.47-2.74.78-5.43,1.85-8.15,2.46-16.89,2.19-35.54,1.88-52.98,1.43-10.79.21-21.15.93-31.81.89h-.71Z"/>
  <path class="cls-1" d="M898.36,980.95c4.49,1.73,2.25,7.92,2.41,11.49.55,12.94,3.55,25.52,1.59,38.38-1.04,6.84.57,13.46-.44,20.43l-1.46,10.13c-.44,3.07,4.39,16.69-4.54,17.66l-19.85,2.15-20.86,2.72c-7.03.92-13.69.93-20.89.84l-15.64-.19-14.61.57c-3.59.14-9.22.86-12.75.9-7.36.1-3.91,2.2-11.77,2.6-3.69.19-3.22-.55-6.71-.09l-16.33,1.43c-.25.03-3.55-.82-12.77.47-3.56.5-8.37-.66-12.35-.85-7.38-.34-14.31-.99-21.61-1.84-5.02-.58-9.19.17-14.83-2.53l10.98-12.9c4.96-5.83,3.63-11.78,11.21-18.03,2.31-1.9,2.64-2.91,4.02-5.84,1.29-2.74,5.01-5.55,7.14-8.12,2.98-3.6,6.55-5.57,10.24-8.25,2.07-1.5,4.59-4.2,6.61-6.13l4.49-4.26c2.43-2.31,5.25-4.62,7.51-6.98,2.71-2.83,4.72-4.34,8.16-6.51,2.21-1.4,4.56-5.67,7.16-7.72,2.06-1.62,3.58-4.06,5.32-5.97,4.03-4.44,4.93-5.31,7.66-10.66,1.7-2.85.8-3.1,4.91-4.36l.75-.75q4.02-4.96,7-9.02c1.59-2.17,4.1-3.16,5.93-5.21l4.36-4.89,11.12-10.97c1.24-1.22,4.48-2.68,6.09-4.02,2.96-2.45,4.95-5.76,7.41-8.2,3.24-3.22,6.26-5.37,8.76-9.7l12.19-5.23c.41-3.07,2.49-4.31,4.61-4.35,1.41-.03,2.92-2.37,3.89-3.08l8.37-6.17c3.81-2.81,8.76-3.6,10.02-8.67.65-2.63,5.9-4.34,8.66-5.53,2.54,5,2.95,9.82,2.53,15.19-.6,7.6,3.57,5.7,2.42,17.22-.82,8.19,1.48,16.66,2.1,28.25.69,12.96,2.68,9.58,2.88,16.1"/>
  <path class="cls-1" d="M605.08,995.39c-5.15-5.36-10.8-9.98-14.49-16.2-4.45-7.52-10.73-12.6-16.4-19-9.41-10.62-18.67-20.39-28.79-30.25l-26.69-26.01-13.54-14.94c-2.73-3.01-6.62-4-9.12-8.07,8.81-2.01,18.05,2.95,23.93-.54,2.36-1.4,3.92-.83,6.45-.83l37.18.1c2.73,0,6.73-1.17,9.1-1.34,1.98,1.64,2.93,1.6,5.68,1.69,1.53.06,4.41,1.18,6.09,1.71l22.18-3.27c2.75-.41,13.49.9,23.42.23l7.02-.47c5.16-.35,10.15-.08,15.28.05l7.24.19,9.02.08c10.18.09,11.54-4.58,16.27-1.66-2.59,13.99,1.73,8.77-.83,24.66-2.02,12.57-1.6,24.47-1.33,36.97l.14,6.47c.08,3.61.47,7.5.06,11.05-.66,5.81-.57,11.03-.42,16.86.2,7.97-1.21,14.01.1,21.48.55,3.12.74,6.68.89,10.05l.44,9.56c.26,5.59-.55,11-.86,16.64l-.54,9.61-2.52,34.27c-3.84-1.54-6.09-3.83-8.42-6.84-2.73-3.52-6.12-6.44-9.24-9.66l-8.97-9.25c-6.54-6.75-11.31-13.83-18.26-21.45l-10.75-11.79-19.31-20.09Z"/>
  <path class="cls-1" d="M728.58,1024.07c-8.85,9.47-10.59,8.75-19.39,18.74l-6.08,6.9c-6.26,7.11-1.8,2.13-6.69,9.35-.36.54-2.42-1.46-2.39-2.19.73-18.58,3.02-17.57,2.38-39.22l-.27-9.08c-.04-1.48.27-4.14.39-5.66-1.37-3.87-1.55-6.87-1.15-10.88.31-3.09-.21-6.68-.48-10.04-.35-4.27.27-8.9.36-13.49.2-10.73-1.73-11.83-.42-21.04,1.59-11.13-.54-10.06.66-23.44l.63-6.98c.21-2.33-.32-4.78-.47-7.17-.35-5.69,1.57-11.86,1.61-17.56l.04-5.61c.03-3.69.86-7.88,2.17-11.2,12.26,1.74,14.82-.14,27.58.17l11.28.28c5.48.13,10.47-.91,15.91-.45l13.43,1.13,12.18-1.13c12.8-1.19,6.43,3.38,27.47,1.27,6.4-.64,12.65-.46,18.96-.34l10.76.2c3.61.07,6.27-.07,9.92.83,2.93.73,6.55.5,9.84.9,2.38.29,3.9-.15,6.51-.79,3.4-.83,8.17,1.43,11.75,1.91,2.9.39,5.27.05,7.6,2.13l-28.5,22.54c-6.98,5.52-13.68,10.46-21.72,14.8l-7.73,7.38-9.6,9.61c-5.37,5.37-11.07,10.09-16.6,15.39l-9.22,8.82c-5.55,5.31-10.64,10.67-15.77,16.34l-11.96,13.23-7.37,8.16-10.96,10.72c-3.67,3.59-6.69,6.83-11.05,9.85-1.42.98-2.43,4.39-3.6,5.64Z"/>
  <path class="cls-1" d="M636.56,863.09l-21.03.68c-2.67.09-5.19.8-7.76-.62,5.69-5.68,10.24-11.1,14.89-17.65,4.79-6.75,7.8-5.23,14.52-13.92,2.38-3.08,4.45-4.37,7.67-6.56,3.51-2.39,6.24-7.08,9.37-10.17,4.72-4.66,9.53-8.31,14.61-12.46,2.62-2.15,5.31-5.27,7.8-7.61l11.1-10.45c.82-.77,1.74-2.14,2.55-2.29,2.55-.49,2.88,5.71,2.76,7.73-.26,4.81-.21,9.08-.09,13.92.07,2.84-2.22,7.26-1.73,10.2,1.93,11.65-.57,6.94-.73,21.03-.04,3.84-.82,7.85-1.3,11.86-.44,3.72-.28,8.6-2.09,12.12l-14.07,3.24c-4.05.93-9.05.25-13.38.7-13.34,1.38-11.52-.12-23.09.25Z"/>
  <path class="cls-1" d="M522.32,845.18c-12.09,4.01-21.82-4.99-24.03-13.39-1.83-6.95.09-11.8,4.66-17.01l12.5-14.27,11.23-12.94,5.25-6.02,7.33-8.37c1.04-1.19,3.97-2.89,5.27-3.91,4.88-8.8,6.33-5.6,13.19-13.74,3.92-4.65,7.54-9.04,12.04-13.12l9.08-8.24,14.49-13.2,9.17-8.25c8.36-7.52,9.11-10.87,17.66-18.76l7.49-6.91,16.51-15.7c6.03-5.74,18.58-13.64,26.12-18.02,2.16-1.25,4.7-2.2,6.03-4.06,3.53-4.93,7.7-8.45,12.21-12.35,4.65-4.02,16-20.71,22.68-17.12,1.87,1.01,4.3,2.32,6.13,3.47,4.66,2.91,5.55,9.87,7.25,14.26,1.84,4.75.79,6.82-1.48,10.51-2.73,4.42-5.6,8.33-8.6,12.61l-14.55,20.73-4.14,5.13c-1.38,1.71-7.24,7.05-9.06,8.34-5.07,6.9-10.1,13.32-16,19.38l-6.9,7.09-9.38,9.77-5.08,5.24c-8.44,8.71-15.11,9.91-20.95,18.05-10.47,5.18-14.79,13.48-23.05,21.82-13.48,13.61-11.64,15.2-27.71,28.59-4.58,3.81-8.43,7.39-12.23,12.08-1.53,1.89-4.02,3.07-5.78,4.68l-7.64,6.98-10.87,8.76c-12.05,2.39-6.61,3.83-18.82,7.88Z"/>
  <path class="cls-1" d="M597.3,544.66c-7.34,1.22-27.37-.03-33.89-2.17-7.55-2.48-23.27-11.11-28.22-16.63-5.11-5.7-9.51-11.31-13.94-17.41-3.42-4.71-5.71-10.04-8.41-14.98l-3.38-6.17c-3.61-6.61-4.34-13.5-5.28-20.98-.25-1.99-.79-4.11-.61-6.13.32-3.64-.15-7.79.63-11l2.54-10.47c1.3-5.35,3.81-10.54,5.99-15.62l3.13-7.29,7.96-12.39c3.21-5,1.78-7.23,13.25-15.05,3.08-2.1,6.38-3.34,10.07-4.7,10.58-3.9,19.74-7.47,31.13-9.24l21.76-3.38c3.58-.56,8.6.75,12.1,1.52,6.15,1.37,13.25,5.12,18.08,8.62l6.1,4.42,7.47,5.49c11.36,8.35,15.46,14.1,17.93,27.78,4.95,10.22,6.56,24.36,5.45,35.28-.41,4.01.56,8.66-.07,12.63-.45,2.83-2.77,6.02-2.87,8.94-.27,8.32-1.17,6.86-6.08,16.83l-6.01,12.22c-3.84,7.8-15.25,18.23-20.83,25.49-4.28,5.56-9.08,7.88-15.55,10.01-3.39,1.11-6.46,3.52-10.71,3.15-2.34-.2-4.92.77-7.74,1.23Z"/>
</svg>