<?xml version="1.0" encoding="UTF-8"?>
<svg id="Layer_1" data-name="Layer 1" xmlns="http://www.w3.org/2000/svg" viewBox="0 0 400 600">
  <defs>
    <style>
      .cls-1 {
        fill: #fff;
      }

      .cls-2 {
        font-family: Shupp, Shupp;
        font-size: 72px;
      }
    </style>
  </defs>
  <g>
    <path d="M129.55,131.05c-1.3-1.87-1.45-4.7-1.74-6.65-.21-1.09-.37-2.1-.38-3.29.02-2.54.51-5.1-.14-7.61-.2-1.28-.47-2-1.83-2.2-12.04-1.31-23.99,0-36.06.33-1.11-.07-2.19-.29-3.31-.23-1.48.05-2.19,1.08-2.09,2.55-.03,2.47.51,4.82.91,7.27.22,2.55.54,5.27.25,7.8-.2,2.9.65,5.97.42,8.84-.27,2.84.13,5.76-.08,8.59-.13,1.87-.35,3.77-.08,5.7.14.87-.08,1.89.02,2.67.61,1.23,2.25,1.01,3.55,1.13,1.24.04,3.41.08,4.67.12,6.37.35,13.68,0,19.98.03,5.74.28,10.8.09,16.52.23,2.34.01,6.44-1.73,5.15,2.42-.38,1.17-1.54,1.89-2.51,2.59-1.85,1.28-3.85,2.9-5.57,4.29-3.59,2.61-7.12,4.93-10.6,7.68-2.59,1.93-5,3.39-7.23,5.6-2.7,2.15-4.98,4.94-7.36,7.5-.89.9-1.56,1.23-2.44,2.05-1.16,1.1-2.26,2.34-3.48,3.36-3.01,2.83-6.43,5.17-9.53,7.91-3.73,2.88-2.91-3.05-3.17-5.15-.26-2.98-.59-5.77-.73-8.78-.07-6.63.33-13.3.84-19.89.18-2.06-.24-4.14-.48-6.19-.12-.92.08-1.8-.76-2.08-3.95-.39-8.25-.49-12.32-.26-5.69.26-14.77-.22-21.04.68-3,.53-6.14-.11-9.19.32-2.73.29-5.38-1.02-2.51-3.65,1-.99,2.64-1.46,3.7-2.48,5.47-6.25,11.02-12.41,16.41-18.73,3.04-3.76,6.92-6.78,10.5-10.09,2.5-2.67,5.14-5.31,7.69-7.86,1-.86,2.04-1.6,2.86-2.49.92-.97,1.88-2.24,2.3-3.58.28-.84.65-1.69,1.19-2.38,5.55-5.9,11.37-11.7,16.55-17.9,5.66-5.66,11.46-11.27,17.08-16.96,2.62-2.64,4.61-5.5,7.25-8.1,1.78-1.44,2.91-4.05,5.04-4.92,2.87-.39,1.87,3.56,1.97,5.3-.22,6.39-.23,12.97-1.43,19.28M127.61,131.69,128.13,87.32c.02,5.21.92,10.72,1.46,15.88.33,1.49.08,3.04.25,4.55.21,1.07,1.26,1.43,2.28,1.52,5.76-.3,11.24.82,17,.94,4-.06,8.39-.11,12.47-.24,2.57-.24,4.88-.73,7.48-1.1,1.38-.18,3.69-.83,4.07.99.39,2.84.12,5.41,0,8.35-.14,1.91.36,3.64.35,5.51,0,1.87-.02,3.54-.23,5.39-.93,6.86-1.4,13.75-.85,20.72.2,2.9,2.33,5.87-2.4,5.2-2.37-.16-4.28-.38-6.45-.25-2.89.1-5.94.85-8.89.66-2.06-.12-4.9.22-7.17.08-2.57-.19-5.53-.23-8.01-.18-3.61-.45-7.47-.59-11.02-.61-1.26-.43-.17-2.24.31-3.02.93-1.37,1.15-2.39,1.02-3.85-.03-1.45.04-2.94.06-4.41.11-1.99.5-3.87.27-5.86-.31-2.49-.83-4.4-.72-6.8M105.53,86.32c-1.59,1.7-3.61,3.34-5.15,4.99-2.01,2.34-4.14,4.87-6.22,7.17-2.83,2.97-5.61,5.75-8.29,8.96-1.25,1.54,2.17,1.23,2.99,1.39,5.54-.01,10.82-.07,16.35-.86,4.25.04,8.79-.17,13.08.08,2.31.04,4.54.23,6.84.44.67.01,1.25-.14,1.59-.55.6-.65.48-2,.43-3.02-.18-2.4-.44-5.08-.73-7.56-.7-5.73-.61-11.43.07-17.1.66-3.77.76-7.65.78-11.47-.14-.94.73-5.29-1.1-3.85-2.91,2.57-5.17,5.53-7.8,8.4-1.33,1.53-2.84,3.03-4.37,4.4-2.75,2.84-5.41,5.76-8.37,8.48l-.1.1ZM149.54,133.58c.63-.16,2.37-2.32,2.97-2.86,1.71-1.75,3.69-4.75,4.98-6.51,1.28-1.67,2.29-3.42,3.61-4.95,2.36-2.37,4.28-4.47,6.56-6.78.69-.86-.03-1.08-.96-.99-4.16,1-7.89,1-12.19,1.07-4.26-.06-8.66.32-12.88-.25-3.33-.69-6.81-.64-10.21-.58-1.15-.02-1.79.69-1.7,1.8.42,3.68.01,7.72.43,11.35.25,2.98,1.17,5.85,1.74,8.73.95,4.46.09,9.03.21,13.6.02,1.41.7,1.05,1.3.38.71-.82,1.53-1.58,2.37-2.26,1.77-1.27,3.66-2.42,5.19-4.01,2.68-2.07,5.49-4.59,8.01-6.91M144.91,153.4c2.23.08,4.47-.1,6.69-.21,1.58.03,3.26.3,4.78.17,1.24-.02,2.51-.36,3.75-.25.96.13,1.42.21,2.17-.07,1.7-.89,3.58-1.05,5.45-.77,1.44.09,1.67-1.44,1.5-2.61-.18-1.52-.16-3.27-.13-4.74-.48-9.16,2.1-17.86.9-26.91-.08-.95.02-1.92,0-2.82-.03-.49-.13-.8-.38-.86-.34-.1-1.04.47-1.4.81-2.37,2.05-4.58,4.66-6.49,6.97-.81,1.15-2.04,1.75-2.88,2.81-.55.76-.64,1.7-1.24,2.48-.89,1.01-1.8,2.39-2.66,3.52-.9.99-1.82,1.56-2.78,2.62-.41.42-.84.87-1.16,1.25-.78,1-.95,1.76-1.97,2.53-3.43,2.83-6.39,6.07-10.07,8.65-1.24.85-1.75,2.25-2.75,3.31-.84.85-1.73,1.92-1.39,2.64.66.99,2.66.87,3.83,1.08,2,.18,4.06.59,6.08.39h.14ZM64.89,154.1c4.26-.09,8.59-.49,12.9-.19,1.76-.04,4.92,1.24,5.02-1.44-.03-3.19-.32-6.29.06-9.47.11-2.73.24-5.45.46-8.16.03-1.06-.31-2.01-.6-3.01-.55-1.64-.54-3.53-.61-5.2-.18-1.56-.59-3.21-.58-4.76-.26-1.36.29-5.77-1.4-5.86-.72-.01-1.55.8-2.21,1.38-2.77,2.48-5.41,5.15-8.08,7.85-1.03.94-1.9,2.04-2.74,2.9-1.48,1.44-3.58,2.85-5.13,4.54-2.05,2-4,4.9-6.11,6.99-3.34,3.97-7.12,7.73-10.11,12-2.34,2.61-2.61,3.33,1.34,3.06,4.96-.1,8.92-.62,13.79-.6M93.92,189.37c3.37-2.78,5.97-6.03,9.09-9.09.8-.85,1.64-1.52,2.32-2.4.55-.78.73-1.48,1.34-1.88.5-.37,1.37-.61,2.06-1.09,1.6-1.3,3.28-2.5,4.94-3.82,2.22-1.55,4.23-3.29,6.36-4.97,3-2.11,6.16-4.03,9.04-6.2.82-.66.73-1.05-.16-1.14-3.48-.38-4.91-.28-8.49-.31-1.96.05-3.9-.08-5.77-.23-1.91.02-3.99.19-6.02.24-2.25.22-4.86.18-7.23,0-2.46.04-4.84.14-7-.11-.99-.08-2.1-.05-3.16-.05-2.68.02-4.83-.35-4.62,3.07-.06,2.22-.27,4.02-.14,6.25.12,2.35-.27,4.39-.39,6.75-.08,2.12.05,4.19-.19,6.27-.37,2.88-.3,5.84,0,8.83.26,1.7-.04,3.68.36,5.38.46.92,1.58-.43,2.06-.76,1.84-1.65,3.71-2.95,5.52-4.65l.11-.1Z"/>
    <path d="M155.79,267.96c-7.13.11-14.33,1.13-21.52.63-2.42-.13-5.13.38-7.39-.64-1.58-.83-2.38-2.46-3.58-3.78-4.13-4.09-7.71-8.79-11.75-12.99-4.06-3.88-7.54-8.32-11.33-12.42-5.11-5.25-10.41-10.32-15.61-15.39-4.46-4.39,2.43-4.45,5.45-4.26,3.28.07,6.45-.2,9.71-.08,1.94.02,3.93.2,5.85-.06,3.81-.48,5.41-4.51,7.92-6.91,3.23-3.44,6.86-6.82,10.22-10.15,1.9-1.94,6.68-7.37,7.98-2.17.5,23.87-6.15,17.74,19.25,18.95,5.43-.01,10.85-.06,16.26.45,3.89.15,7.01.73,6.98,5.39.48,4.65.91,9.44,1.2,14.15.53,5.04,1.32,9.98,1.05,14.98-.09,2.44-.39,4.9-.33,7.34.28,4.05.55,6.33-4.35,5.95-2.47-.11-4.93.45-7.4.66-2.83.21-5.69.11-8.46.33h-.15ZM117.69,219.18c3.31-.19,7.31.54,10.27-1.28,1.12-.92,1.19-2.76,1.35-4.4.29-2.78.36-5.6.56-8.35.22-3.02-.84-3.99-3.12-1.63-4.3,3.97-8.74,7.89-12.81,12.12-4.22,4.47-.07,3.53,3.61,3.54h.15ZM136.57,252.81c2.65-2.89,5.7-5.57,8.27-8.58,3.8-4.33,8.22-8.24,12.33-12.24,3.26-2.97,7.15-5.23,10.46-8.15.54-.44,1.29-1.33.8-1.76-.73-.69-2.42-.68-3.48-.75-4.56-.31-9.25-.33-13.92-.29-5.6-.26-11.36-.19-16.96-.15-2.7-.12-4.22,1.05-4.28,3.84-.32,4.71-.39,9.24-.48,13.98,0,5.05.41,10.11.31,15.15,0,1.48-.41,3.41-.03,4.85.48,1.1,1.58-.41,2.06-.85,1.54-1.73,3.27-3.29,4.82-4.94l.1-.11ZM110.97,246.62c1.77,1.81,3.61,3.7,5.33,5.59,3.18,3.37,5.94,7.33,9.58,10.17,1.93,1.06,1.52-2.44,1.74-3.58.15-2.1.32-4.23.39-6.32.1-3.71-.33-7.51-.24-11.29.22-4.42-.14-8.84.2-13.26.03-2.25,1.25-6.53-2.12-6.64-6.22.13-12.52-.04-18.7.54-4.73-.24-9.93-.34-14.6-.01-1.09.13-2.82-.05-3.56.66-.18.25-.09.61.23,1.06,1.14,1.41,2.54,2.72,3.8,4.05,3.47,3.45,7.53,7.3,10.91,11.01,2.42,2.51,4.5,5.45,6.93,7.92l.1.1ZM152.43,265.1c6.41-.08,12.77.11,18.96-1.43,1.59-.59,1.9-2.27,1.97-3.82.17-3.72.49-7.49.22-11.23-.06-2.08-.49-4.15-.78-6.18-.16-2.28-.25-4.68-.57-6.98-.26-2.77-.28-5.27-.7-7.9-.3-2.18-1.33-3.09-3.22-1.57-2.47,2.03-5.22,3.71-7.77,5.63-1.76,1.52-3.41,3.29-5.2,4.83-3.47,3.11-6.17,6.7-9.23,10.13-2.79,3.01-6.04,5.58-9.04,8.4-2.46,2.21-4.19,5.13-5.95,7.83-.56.82-1.25,2.12.08,2.59,5.75,1.18,12.05.96,17.79-.17"/>
    <path d="M89.9,218.03c-5.69-1.87-5.36-8.04-1.96-11.99,4.47-5.5,9.59-10.46,14.74-15.32,6.53-6.21,12.64-12.81,19.81-18.31,3.58-3.12,7.67-10.03,13.11-6.45,6.52,4.56,2.01,11.8-1.97,16.52-2.27,2.85-4.83,5.58-7.33,8.28-3.26,3.59-6.85,6.32-10.21,9.44-3.7,3.57-7.21,7.41-10.9,11-3.92,3.82-9.32,8.52-15.16,6.88l-.13-.04ZM92.79,215.51c6.88-.5,16.33-12.89,21.53-17.67,4.62-4.08,9.33-8.24,13.38-13.03,2.66-3.37,11.9-12.18,7.13-16.18-2.35-1.32-5.03,1.33-6.74,2.88-1.72,1.59-3.56,2.96-5.41,4.35-4.86,3.47-8.84,7.91-13.11,12.06-2.61,2.5-5.39,5-7.93,7.6-4.07,4.23-8.43,8.36-11.83,13.27-2.03,3-1.2,6.74,2.87,6.73h.13Z"/>
    <path d="M111.59,154.81c-13.86,3.52-26.01-9.27-24.3-22.95,2.28-20.09,28.62-26.68,37.98-7.82,5.78,11.6-.73,27.6-13.55,30.73l-.13.03ZM109.22,152.26c9.48-1.1,16.36-11.42,14.98-20.76-3.17-21-30.86-19.99-33.85.55-1.58,10.81,7.58,21.79,18.74,20.23l.14-.02Z"/>
    <path class="cls-1" d="M107.02,85.15l1.93-1.91,1.41-1.47,1.08-1.09,2.52-2.73c.36-.39,1.1-.75,1.49-1.18l1.1-1.21c.73-.8,1.42-1.45,2.09-2.28.55-.68,1.19-1.34,1.76-2l2.53-2.86c1.27-1.44,2.57-2.63,4.03-3.9l.02,1.45c0,.81-.04,1.56-.05,2.38l-.12,6.44-.12,1.83c-.08,1.14-.69,4.4-.7,5.11-.01,1.13.04,1.83-.25,2.89-.4,1.47.05,3.23-.14,4.77-.06.45-.1.87-.07,1.29l.21,2.87c.05.62.16,1.37.15,1.93-.02.64-.13.99.19,1.55l.13,1.37.18,1.83.37,3.79c.14,1.44.19,2.92-.02,4.28-1.75.45-3.16-.18-4.77-.24l-3.33-.12-1.37-.05-2.87-.12c-.56-.02-1.07-.02-1.63,0l-3.73.12c-1.08.03-2.17-.09-3.32-.14-.2,0-5.71.71-5.59.71l-4.81.16c-.88.03-1.68.01-2.57,0-1.63-.02-3.27.24-4.89.01l-2.62-.37,2.86-3.17,1.76-2.01c1.35-1.54,3.13-3.06,4.03-4.09,1.07-1.23,2.06-2.43,3.22-3.58.48-.47.88-1.11,1.3-1.61l2-2.35c1.17-1.38,3.77-3.24,5.13-5l1.48-1.29Z"/>
    <path class="cls-1" d="M60.91,154.15l-5.55.11-3.21.3-2.31.1-5.12.15c-.27,0-.69,0-.85-.17-.17-.17.02-.73.21-.87,1.98-1.46,2.43-2.87,3.86-4.59l1.89-2.27,1.89-2.09c.39-.43.83-1.07,1.24-1.42.99-.87,1.61-1.64,2.38-2.76.27-.39,2.36-2.12,4-4.57.4-.6.95-1.11,1.41-1.64,1.28-1.46,3.44-3.6,5.11-4.69,1.53-1,2.22-2.59,4.05-4.17.62-.54,1.26-.89,1.68-1.57.62-1,1.55-1.69,2.4-2.48l4.38-4.09c.54-.51,1.28-.83,1.99-1.38.58.95.77,2.02.7,3.13-.05.88.17,1.74.19,2.57l.07,2.61.6,2.62c.04.17-.21,2.61.06,3.65l.46,1.73c.53,1.97.93,1.51.51,4.1-.11.67-.15,1.14-.17,1.81l-.07,1.95-.07,2.39c-.07,2.48-.31,1.55-.27,3.62l.06,2.67.05,2.36c0,.29.6,3.09-.43,3.03l-2.11-.13c-2.24-.37-6.98-.43-9.17-.27l-1.99.14-2.29.02c-.52,0-1.06-.03-1.57.07l-3.99.05Z"/>
    <path class="cls-1" d="M93.94,188.88c-.54.34-.88,1.03-1.25,1.44-.59.64-1.91.71-2.35,1.57-.71,1.36-2.1,1.05-3.63,3.5-.6-.69-.41-1.66-.41-2.47v-1.72c-.02-1.69-.29-2.51-.36-4.47-.07-1.68-.14-3.32.06-5l.3-2.58c.04-.35,0-.98,0-1.39v-2.53c-.02-3.63.52-3.09.44-6.72l-.09-3.92.28-2.14c.12-.93-.42-2.09-.02-2.95.63-1.36,2.88-.67,4.75-.8,3.64-.27,3.42.32,5.55.18.74-.05,1.44.01,2.19.02.9.01,1.94-.3,2.88-.1,2.31.48,4.41.05,6.67-.02l3.78-.11,2.22-.25c.28.13.81.37,1.19.37l6.86.03c.64,0,1.26.32,1.88-.24l1.17.38,3.84.17c-.18.33-.43.44-.72.49-.5,1.07-1.51,1.47-2.52,1.85-.41.44-1.12,1.05-1.76,1.43l-.79.46c-.57.34-1.06.68-1.59,1.1-.29.23-.95.42-1.24.74-.43.45-1.1.66-1.53,1.01l-1.69,1.38c-1.1.9-2.04,1.98-3.35,2.59-1.06.49-1.76,1.58-2.67,2.15-.66.41-1.2.68-1.74,1.13-.75.63-1.2,1.26-2.01,1.87-.56.42-.26.11-1.53.88l-.36.27c-.09.17-.18.16-.29.42s-.45.61-.74.87l-1.93,1.83-1.96,2.01-.81.83-2.59,2.63-.84.95c-1,1.13-1.99,2.04-3.28,2.86Z"/>
    <path class="cls-1" d="M150.91,132.43c.29-.05,1.18-1.27,1.29-1.51.29-.63.84-.98,1.21-1.49l3.29-4.44,1.03-1.55,1.45-1.83c.22-.27.48-.97.64-1.3l2.83-2.87c.81-.82,1.73-1.59,2.43-2.49.36-.46.62-.91,1.06-1.26l2.05-1.63c-.74-.53-1.6-.47-2.43-.25l-1.7.44c-.94.24-1.89.42-2.84.6l-.92-.35c-.71.4-1.45.25-2.2.27l-2.5.06-3.04.09-2.73-.03h-4.51s-1.46.05-1.46.05c-1.14.04-2.32-.45-3.48-.56-1.39-.13-2.85-.39-4.24-.38-2.1.01-4,.23-6.13-.08-.06,1.17-.11,2.27.15,3.29.44,1.76-.12,3.56.01,5.4l.21,2.99c.09,1.23,0,3.13.7,4.53,0,.26,0,.84.06,1.08l.61,2.3c.31,1.17.56,2.25.65,3.5.06.86.39,1.82.27,2.65-.21,1.44-.02,1.54-.1,2.69l-.19,2.87c-.07,1.1-.03,2.2.02,3.41.02.62-.54,1.3.21,1.74l.9-1.25c.17-.24.56-.57.75-.8.55-.65,1.06-1.24,1.95-1.51l.35-.63,1.79-.94c.84-.44,1.24-.91,1.9-1.66,1.32-1.51,4.88-3.23,5.89-5.33l1.38-.62,1.02-1.19c.46-.53,1.03-1,1.6-1.42l.75-.6Z"/>
    <path class="cls-1" d="M144.64,153.57c-2.27.03-4.42-.21-6.67-.49-.98-.11-2.64-.31-3.02-1.24-.34-.79.74-2.03,1.56-3.12.93-1.22,1.93-2.36,3.16-3.29,3.38-2.68,6.82-5.85,9.84-8.69,1.88-2.69,4.41-4.67,6.47-7.25,1.8-2.14,2.54-4.54,4.69-6.4,2.54-2.51,4.96-5.9,7.54-7.98.61-.49,1.13-.74,1.43-.62.81.7.38,2.47.55,3.62,1.03,9.15-1.41,18.15-.96,27.33-.28,1.88.94,5.61-.94,6.64-1.1.5-2.81.11-4.15.51-.57.16-1.13.39-1.7.51-3.52.46-7.4.39-11.03.3-2.25.04-4.4.19-6.62.18h-.15Z"/>
    <path class="cls-1" d="M172.16,243.3c.93.36.47,1.65.5,2.39.12,2.7.74,5.32.33,7.99-.22,1.42.12,2.8-.09,4.25l-.3,2.11c-.09.64.92,3.48-.94,3.68l-4.13.45-4.34.57c-1.46.19-2.85.19-4.35.18l-3.26-.04-3.04.12c-.75.03-1.92.18-2.66.19-1.53.02-.81.46-2.45.54-.77.04-.67-.11-1.4-.02l-3.4.3c-.05,0-.74-.17-2.66.1-.74.1-1.74-.14-2.57-.18-1.54-.07-2.98-.21-4.5-.38-1.04-.12-1.91.04-3.09-.53l2.29-2.69c1.03-1.21.76-2.45,2.34-3.75.48-.4.55-.61.84-1.22.27-.57,1.04-1.15,1.49-1.69.62-.75,1.36-1.16,2.13-1.72.43-.31.95-.88,1.38-1.28l.94-.89c.51-.48,1.09-.96,1.56-1.45.56-.59.98-.9,1.7-1.36.46-.29.95-1.18,1.49-1.61.43-.34.75-.84,1.11-1.24.84-.92,1.03-1.1,1.59-2.22.35-.59.17-.65,1.02-.91l.16-.16q.84-1.03,1.46-1.88c.33-.45.85-.66,1.23-1.09l.91-1.02,2.31-2.28c.26-.25.93-.56,1.27-.84.62-.51,1.03-1.2,1.54-1.71.67-.67,1.3-1.12,1.83-2.02l2.54-1.09c.09-.64.52-.9.96-.91.29,0,.61-.49.81-.64l1.74-1.28c.79-.59,1.83-.75,2.09-1.8.14-.55,1.23-.9,1.8-1.15.53,1.04.62,2.04.53,3.16-.12,1.58.74,1.19.5,3.59-.17,1.71.31,3.47.44,5.88.14,2.7.56,1.99.6,3.35"/>
    <path class="cls-1" d="M111.09,246.31c-1.07-1.12-2.25-2.08-3.02-3.37-.93-1.57-2.23-2.62-3.42-3.96-1.96-2.21-3.89-4.25-6-6.3l-5.56-5.42-2.82-3.11c-.57-.63-1.38-.83-1.9-1.68,1.84-.42,3.76.61,4.98-.11.49-.29.82-.17,1.34-.17l7.74.02c.57,0,1.4-.24,1.89-.28.41.34.61.33,1.18.35.32.01.92.24,1.27.36l4.62-.68c.57-.08,2.81.19,4.88.05l1.46-.1c1.07-.07,2.11-.02,3.18.01l1.51.04,1.88.02c2.12.02,2.4-.95,3.39-.35-.54,2.91.36,1.83-.17,5.13-.42,2.62-.33,5.1-.28,7.7l.03,1.35c.02.75.1,1.56.01,2.3-.14,1.21-.12,2.3-.09,3.51.04,1.66-.25,2.92.02,4.47.11.65.15,1.39.19,2.09l.09,1.99c.05,1.17-.11,2.29-.18,3.47l-.11,2-.52,7.14c-.8-.32-1.27-.8-1.75-1.42-.57-.73-1.27-1.34-1.92-2.01l-1.87-1.93c-1.36-1.41-2.36-2.88-3.8-4.47l-2.24-2.45-4.02-4.18Z"/>
    <path class="cls-1" d="M136.81,252.28c-1.84,1.97-2.21,1.82-4.04,3.9l-1.27,1.44c-1.3,1.48-.37.44-1.39,1.95-.08.11-.5-.3-.5-.46.15-3.87.63-3.66.5-8.17l-.06-1.89c0-.31.06-.86.08-1.18-.29-.81-.32-1.43-.24-2.27.06-.64-.04-1.39-.1-2.09-.07-.89.06-1.85.08-2.81.04-2.23-.36-2.46-.09-4.38.33-2.32-.11-2.1.14-4.88l.13-1.45c.04-.49-.07-.99-.1-1.49-.07-1.19.33-2.47.34-3.66v-1.17c.01-.77.19-1.64.46-2.33,2.55.36,3.09-.03,5.74.04l2.35.06c1.14.03,2.18-.19,3.31-.09l2.8.23,2.54-.24c2.66-.25,1.34.7,5.72.26,1.33-.13,2.63-.1,3.95-.07l2.24.04c.75.01,1.31-.01,2.07.17.61.15,1.36.1,2.05.19.5.06.81-.03,1.36-.16.71-.17,1.7.3,2.45.4.6.08,1.1.01,1.58.44l-5.94,4.69c-1.45,1.15-2.85,2.18-4.52,3.08l-1.61,1.54-2,2c-1.12,1.12-2.31,2.1-3.46,3.2l-1.92,1.84c-1.16,1.11-2.22,2.22-3.28,3.4l-2.49,2.76-1.54,1.7-2.28,2.23c-.76.75-1.39,1.42-2.3,2.05-.3.2-.51.91-.75,1.17Z"/>
    <path class="cls-1" d="M117.65,218.76l-4.38.14c-.56.02-1.08.17-1.62-.13,1.19-1.18,2.13-2.31,3.1-3.67s1.62-1.09,3.02-2.9c.5-.64.93-.91,1.6-1.37.73-.5,1.3-1.47,1.95-2.12.98-.97,1.99-1.73,3.04-2.6.55-.45,1.11-1.1,1.62-1.58l2.31-2.18c.17-.16.36-.45.53-.48.53-.1.6,1.19.58,1.61-.05,1-.04,1.89-.02,2.9.01.59-.46,1.51-.36,2.12.4,2.43-.12,1.45-.15,4.38,0,.8-.17,1.64-.27,2.47-.09.77-.06,1.79-.44,2.52l-2.93.67c-.84.19-1.89.05-2.79.15-2.78.29-2.4-.03-4.81.05Z"/>
    <path class="cls-1" d="M93.86,215.03c-2.52.83-4.54-1.04-5-2.79-.38-1.45.02-2.46.97-3.54l2.6-2.97,2.34-2.69,1.09-1.25,1.53-1.74c.22-.25.83-.6,1.1-.82,1.02-1.83,1.32-1.17,2.75-2.86.82-.97,1.57-1.88,2.51-2.73l1.89-1.72,3.02-2.75,1.91-1.72c1.74-1.57,1.9-2.26,3.68-3.91l1.56-1.44,3.44-3.27c1.26-1.19,3.87-2.84,5.44-3.75.45-.26.98-.46,1.26-.85.74-1.03,1.6-1.76,2.54-2.57s3.33-4.31,4.72-3.56c.39.21.9.48,1.28.72.97.61,1.15,2.06,1.51,2.97.38.99.16,1.42-.31,2.19-.57.92-1.17,1.73-1.79,2.63l-3.03,4.32-.86,1.07c-.29.36-1.51,1.47-1.89,1.74-1.06,1.44-2.1,2.77-3.33,4.04l-1.44,1.48-1.95,2.04-1.06,1.09c-1.76,1.81-3.15,2.06-4.36,3.76-2.18,1.08-3.08,2.81-4.8,4.54-2.81,2.83-2.42,3.17-5.77,5.95-.95.79-1.75,1.54-2.55,2.52-.32.39-.84.64-1.2.97l-1.59,1.45-2.26,1.82c-2.51.5-1.38.8-3.92,1.64ZM129.02,177.05c.28-.3.53-.75.43-.97-.08-.18-.4-.42-.69-.54-.36-.15-.87.17-1.03.53-.15.33-.07.69.2.93.33.29.74.41,1.09.04ZM107,199.72c.64-.4.9-.68.86-1.15-.03-.28-.38-.7-.68-.78-.78-.21-1.51.95-1.25,1.14l1.07.79Z"/>
    <path class="cls-1" d="M109.47,152.45c-1.53.25-5.7,0-7.06-.45-1.57-.52-4.85-2.31-5.88-3.46s-1.98-2.35-2.9-3.62c-.71-.98-1.19-2.09-1.75-3.12l-.7-1.29c-.75-1.38-.9-2.81-1.1-4.37-.05-.42-.17-.85-.13-1.28.07-.76-.03-1.62.13-2.29l.53-2.18c.27-1.11.79-2.2,1.25-3.25l.65-1.52,1.66-2.58c.67-1.04.37-1.51,2.76-3.13.64-.44,1.33-.7,2.1-.98,2.2-.81,4.11-1.56,6.48-1.92l4.53-.7c.74-.12,1.79.16,2.52.32,1.28.28,2.76,1.07,3.76,1.8l1.27.92,1.55,1.14c2.37,1.74,3.22,2.94,3.73,5.79,1.03,2.13,1.37,5.07,1.14,7.35-.08.83.12,1.8-.01,2.63-.09.59-.58,1.25-.6,1.86-.06,1.73-.24,1.43-1.27,3.5l-1.25,2.55c-.8,1.62-3.17,3.8-4.34,5.31-.89,1.16-1.89,1.64-3.24,2.08-.7.23-1.34.73-2.23.66-.49-.04-1.03.16-1.61.26ZM106.53,130.77c-.67.18-.87.69-.67,1.14s.57.7,1.11.53c.31-.1.68-.59.56-.96-.14-.41-.62-.82-1-.71Z"/>
  </g>
  <text class="cls-2" transform="translate(56.2 353.33) scale(.9 1)"><tspan x="0" y="0">Thoughtful</tspan><tspan x="0" y="86.4">App</tspan><tspan x="0" y="172.8">Co.</tspan></text>
</svg>